<?xml version="1.0" encoding="UTF-8"?>
<svg xmlns="http://www.w3.org/2000/svg" xmlns:xlink="http://www.w3.org/1999/xlink" viewBox="0 0 144 144">
  <defs>
    <style>
      .cls-1 {
        fill: url(#tentacles-4);
      }

      .cls-2 {
        fill: url(#tentacles);
      }

      .cls-3 {
        fill: url(#linear-gradient-2);
      }

      .cls-4 {
        fill: url(#tentacles-3);
      }

      .cls-5 {
        fill: url(#linear-gradient-3);
      }

      .cls-6 {
        fill: url(#linear-gradient-4);
        stroke-width: 3px;
      }

      .cls-6, .cls-7 {
        stroke: #033;
        stroke-miterlimit: 10;
      }

      .cls-8 {
        fill: url(#tentacles-6);
      }

      .cls-9 {
        fill: #033;
      }

      .cls-10 {
        fill: url(#linear-gradient);
      }

      .cls-11 {
        fill: url(#tentacles-5);
      }

      .cls-12 {
        fill: url(#tentacles-2);
      }

      .cls-7 {
        fill: none;
      }
    </style>
    <linearGradient id="linear-gradient" x1="-15.71" y1="160.8" x2="120.16" y2="23.24" gradientUnits="userSpaceOnUse">
      <stop offset="0" stop-color="#7e8c8c"/>
      <stop offset="1" stop-color="#f5eae0"/>
    </linearGradient>
    <linearGradient id="tentacles" x1="90.83" y1="356.47" x2="138.49" y2="280.62" gradientTransform="translate(-294.22 -70.31) rotate(87.98) scale(1.21 -1.1) skewX(-2.27)" gradientUnits="userSpaceOnUse">
      <stop offset="0" stop-color="#b0bcbf" stop-opacity=".9"/>
      <stop offset=".13" stop-color="#94a2a5" stop-opacity=".9"/>
      <stop offset=".39" stop-color="#4f6263" stop-opacity=".9"/>
      <stop offset=".52" stop-color="#2d4343" stop-opacity=".9"/>
      <stop offset=".62" stop-color="#45595a" stop-opacity=".9"/>
      <stop offset=".85" stop-color="#839395" stop-opacity=".9"/>
      <stop offset="1" stop-color="#b0bcbf" stop-opacity=".9"/>
    </linearGradient>
    <linearGradient id="tentacles-2" data-name="tentacles" x1="610.96" y1="55.67" x2="568" y2="162.67" gradientTransform="translate(572.68 451.24) rotate(-154.74) skewX(-.18)" xlink:href="#tentacles"/>
    <linearGradient id="tentacles-3" data-name="tentacles" x1="151.48" y1="-162.86" x2="106.81" y2="-54.05" gradientTransform="translate(-52.34 102.5) rotate(28.26) scale(.93 .85) skewX(1.93)" xlink:href="#tentacles"/>
    <linearGradient id="linear-gradient-2" x1="84.48" y1="4.57" x2="16.77" y2="121.86" gradientTransform="translate(36.52 -21.9) rotate(25)" gradientUnits="userSpaceOnUse">
      <stop offset="0" stop-color="#b0bcbf" stop-opacity=".9"/>
      <stop offset=".1" stop-color="#94a6a9" stop-opacity=".9"/>
      <stop offset=".3" stop-color="#4e7071" stop-opacity=".9"/>
      <stop offset=".52" stop-color="#033" stop-opacity=".9"/>
      <stop offset=".6" stop-color="#184546" stop-opacity=".9"/>
      <stop offset=".78" stop-color="#577678" stop-opacity=".9"/>
      <stop offset="1" stop-color="#b0bcbf" stop-opacity=".9"/>
    </linearGradient>
    <linearGradient id="tentacles-4" data-name="tentacles" x1="110.88" y1=".95" x2="51.16" y2="104.38" gradientTransform="translate(6.99 -3.21) rotate(17.89) scale(1.04 1.03) skewX(.05)" xlink:href="#tentacles"/>
    <linearGradient id="tentacles-5" data-name="tentacles" x1="102.32" y1="15.21" x2="47.62" y2="109.96" gradientTransform="translate(35.66 -19.72) rotate(25.27) scale(1 1.07) skewX(.56)" xlink:href="#tentacles"/>
    <linearGradient id="tentacles-6" data-name="tentacles" x1="111.82" y1="75.17" x2="68.01" y2="151.06" gradientTransform="translate(77.54 -61.96) rotate(35.89)" xlink:href="#tentacles"/>
    <linearGradient id="linear-gradient-3" x1="51.24" y1="-58.54" x2="-3.75" y2="36.71" gradientTransform="translate(23.99 71.76) rotate(-5.25) scale(.87 .77) skewX(-28.02)" gradientUnits="userSpaceOnUse">
      <stop offset="0" stop-color="#b0bcbf" stop-opacity=".9"/>
      <stop offset=".13" stop-color="#94a2a5" stop-opacity=".9"/>
      <stop offset=".39" stop-color="#4f6263" stop-opacity=".9"/>
      <stop offset=".52" stop-color="#2d4343" stop-opacity=".9"/>
      <stop offset=".62" stop-color="#45595a" stop-opacity=".9"/>
      <stop offset=".85" stop-color="#839395" stop-opacity=".9"/>
      <stop offset="1" stop-color="#b0bcbf" stop-opacity=".9"/>
    </linearGradient>
    <linearGradient id="linear-gradient-4" x1="112.62" y1="1.8" x2="75.18" y2="39.24" gradientTransform="translate(36.52 -21.9) rotate(25)" gradientUnits="userSpaceOnUse">
      <stop offset="0" stop-color="#88a699"/>
      <stop offset=".11" stop-color="#6c8e84"/>
      <stop offset=".3" stop-color="#456d67"/>
      <stop offset=".49" stop-color="#275450"/>
      <stop offset=".67" stop-color="#114140"/>
      <stop offset=".84" stop-color="#043636"/>
      <stop offset="1" stop-color="#033"/>
    </linearGradient>
  </defs>
  <g id="background">
    <rect class="cls-10" width="144" height="144"/>
  </g>
  <g id="Layer_1" data-name="Layer 1">
    <path class="cls-7" d="M110.3,19.93c-21.05-1.39-28.74,4-31.88,9.18-5.68,9.38,2.19,20.37-5.67,29.56-4.24,4.96-10.34,6.2-20.68,8.3-14.51,2.95-24.07.35-33.17,6.86-2.78,1.99-4.56,4.15-5.63,5.64"/>
    <g>
      <path class="cls-2" d="M15.59,65.32c-4.24,3.42,8.57.39,18.72-4.09,13.69-6.04,17.02-16.01,33.87-30.39,9.5-8.11,20.52-9.83,21.88-10.03,1.57-.23,6.77,1.11,11.43-1.96.55-.36,3.13-2.06,2.88-3.18-.23-1.07-3.06-1.67-4.86-.41-1.69,1.2-1.72,3.52-2.35,5.4-1.83,5.39-9.01,6.53-12.04,8.39-8.43,5.17-16.44,8.65-25.64,12.38-33.4,13.54-40.61,21.24-43.88,23.87Z"/>
      <path class="cls-9" d="M15.68,65.43c-3.95,3.26,9.76-1.03,10.44-1.48,4.14-1.56,8.24-3.38,11.89-5.7,7.3-4.74,12.47-12.05,18.85-18.38,3.99-3.96,8.18-7.71,12.69-11.07,6.27-4.28,13.47-7.46,21.01-8.51,4.69.4,9.99-.29,12.9-4.3.07-.16.03-.19.04-.12.02.05-.04-.04-.19-.11-.15-.07-.33-.15-.55-.18-3.98-.62-3.64,3.01-4.64,5.84-.43,1.22-1.18,2.32-2.07,3.21-3.31,3.41-8.17,4.07-11.84,6.66-14.33,8.77-30.54,13.7-45.74,20.59-8.09,3.59-16.14,7.59-22.8,13.56h0ZM15.49,65.2c10.06-8.82,21.99-15.48,34.08-21.15,7.93-3.66,16.56-6.88,24.41-10.67,3.77-1.76,7.4-3.79,11-5.88,5.58-2.56,10.76-3.12,11.86-10.06.65-2.78,3.67-4.52,6.39-3.66.8.26,1.54.55,1.93,1.5.51,2.06-2.32,3.54-3.69,4.42-3.28,1.98-7.29,1.86-10.9,1.57-4.07.4-8.04,1.81-11.77,3.46-4,1.86-7.67,4.35-10.83,7.39-8.38,7.39-14.7,16.75-23.28,23.95-5.25,4.38-11.92,6.7-18.32,8.6-1.54.47-15.27,4.48-10.87.51h0Z"/>
    </g>
    <g>
      <path class="cls-12" d="M43.45,138.96c-3.99,2.48,2.53-7.37,9.27-14.5,9.1-9.62,17.75-9.22,34.22-18.82,9.28-5.41,14.23-14.17,14.82-15.25,5.87-10.67,2.54-10.26,9.38-15.33,6.23-4.61,4.3-2.82,17.62-11.46.71-.46-6.58,9.26-24.55,20.83-12.31,7.92-19.62,15.54-28.18,25.14-21.28,23.85-29.5,27.47-32.58,29.38Z"/>
      <path class="cls-9" d="M43.53,139.09c-5.11,2.67,4.99-10.43,5.62-11.17,3.02-3.89,6.4-7.65,10.63-10.3,8.34-5.13,17.82-7.92,26.24-12.88,4.15-2.25,7.86-5.33,11.01-8.94,3.2-3.61,5.66-7.82,7.47-12.27.46-1.12.82-2.27,1.33-3.43,1.58-3.49,5.21-5.37,8.05-7.63,4.05-2.78,8.18-5.31,12.21-8.1,0,0,1.51-1.03,1.51-1.03l.38-.26.19-.13.09-.06s-.12-.08.61-.17c.52.03.87.43.83,1.05-.1.4-.06.18-.1.3,0,0-.06.12-.06.12l-.08.14-.15.23c-5.36,7.03-12.34,12.63-19.43,17.8-3.98,2.84-8.1,5.36-11.93,8.37-3.81,2.93-7.45,6.08-10.88,9.46-6.96,6.76-13.23,14.34-20.41,20.92-7.17,6.63-14.57,13.23-23.12,18h0ZM43.37,138.83c12.76-7.33,21.84-19.28,31.47-30.1,6.38-7.44,13.25-14.69,21.21-20.51,3.91-2.95,8.18-5.45,12.2-8.19,7.03-4.93,14.08-10.14,19.68-16.69,0,0,.04-.06.04-.06v.02c-.03.09.04-.16-.06.2-.03.59.33.93.8.99.69-.08.52-.19.51-.12-.39.24-1.82,1.11-2.25,1.37-4.11,2.59-8.47,4.9-12.52,7.56-2.81,2.12-6.31,3.86-7.79,7.17-.46,1.08-.82,2.26-1.27,3.41-1.76,4.62-4.04,9.08-7.08,12.98-3.04,3.92-6.73,7.43-11.05,10.04-4.22,2.55-8.66,4.76-13.2,6.64-4.52,1.93-9.14,3.43-13.32,5.7-4.26,2.26-7.82,5.56-11.01,9.17-2.71,3.19-5.69,6.44-7.3,10.34-.03.14-.05.27-.03.37.01.07.07.07.19.07.25-.04.52-.21.77-.35h0Z"/>
    </g>
    <g>
      <path class="cls-4" d="M128.67,44.66c3.07-2.29-.24-7.02-3.38-4.83-.57.4-1.1.85-1.57,1.37-4.79,5.23,1.86,11.27-2.91,20.26-7.32,13.79-27.46,20.62-30.68,21.43-12.5,3.14-18.36,1.64-26.02,7.55-5.67,4.38-13.67,17.94-10.07,14.84,11.91-10.28,13.08-13.9,22.58-20.08,7.41-4.81,39.12-22.97,44.26-32.73,1.33-2.52,4.44-5.32,7.79-7.82Z"/>
      <path class="cls-9" d="M128.58,44.54c1.92-1.33,1.19-4.43-1-4.98-1.08-.25-2.02.3-2.81,1.03-.8.69-1.48,1.59-1.89,2.56-.85,2.03-.41,4.23-.02,6.35,1.04,4.42.9,9.66-1.66,13.62,0,0-.87,1.52-.87,1.52-3.52,5.3-8.64,9.45-14.1,12.51-6,3.26-12.35,5.93-19.09,7.06-6.48,1.38-13.49,1.2-19.39,4.47-3.94,2.1-6.74,5.56-9.23,9.18-1.59,2.45-3.33,4.93-4.27,7.67,0,.02,0,.05,0,0-.03-.22-.02-.37-.3-.65-.19-.19-.54-.27-.64-.26-.2.01-.18.01-.26.04-.06.02-.06.02-.04,0,.09-.06.28-.22.49-.42.34-.32,1.48-1.35,1.85-1.69,6.66-6.01,12.27-13.36,19.89-18.3,11.24-7.23,22.94-13.97,33.93-21.56,3.59-2.56,7.24-5.19,10.13-8.54.73-.86,1.25-1.78,1.88-2.74,2.02-2.74,4.72-4.86,7.41-6.88h0ZM128.76,44.78c-2.62,2.03-5.27,4.18-7.09,6.97-.54.9-1.07,1.99-1.73,2.91-2.75,3.65-6.14,6.68-9.58,9.61-6.9,5.83-14.45,10.77-22.02,15.57-3.84,2.45-13.34,7.93-16.68,10.86-5.07,4.3-9.57,9.39-14.73,13.65,0,0-1.29,1.09-1.29,1.09l-.65.54c-.38.31-1.02.91-1.7.88-.17.02-.6-.09-.83-.33-.28-.28-.33-.49-.38-.69-.12-.63.19-1.27.4-1.75,1.29-2.59,2.99-4.92,4.72-7.19,4-5.54,9.66-10.1,16.5-11.4,6.55-1.35,13.27-1.9,19.5-4.47,9.5-3.99,18.8-9.48,25.1-17.78,1.46-2.17,2.87-4.51,3.27-7.11.63-3.17-.22-6.59-.18-9.89-.02-2.36,1.17-4.66,3.03-6.1.86-.75,2.11-1.36,3.28-.99,2.44.72,3.25,4.12,1.07,5.61h0Z"/>
    </g>
    <path class="cls-7" d="M18.34,92.23c7.67-1.33,6.82-8.58,4.82-16.5-2.23-8.87,12.95,6.68,16.18-.74,3.55-8.15,5.34-12.87,17.23-12.42,12.14.46,2.76-6.54,6.98-14.27,3.73-6.82,6.25-10.24,9.71-11.24,5.73-1.66,9.6,8.55,13.27,3.61,3.29-4.43,4.09-6.51,7.92-6.14,3.61.35,6.74-.7,8.08-1.65"/>
    <path class="cls-7" d="M126.84,54.54c-3.93.21-17.9-1.31-23.62.65-2.6.89-12.23,4.92-13.84,13.86-1.46,8.12,5.26,12.03,3.18,19.81-1.82,6.81-8.66,10.1-11.02,11.07-9.62,3.96-17.13-.93-22.59,3.09-2.51,1.85-4.96,5.86-3.01,15.79"/>
    <path class="cls-7" d="M124.94,49.78c-1.82,10.27-9.34,38.13-22.32,38.26-1.77.02-10.73-2.78-17.85,2.55-5.39,4.03-10.05,8.05-12.88,25.67-1.6,9.95-7.26,14.21-11.39,15.98"/>
    <g>
      <path class="cls-3" d="M17.54,89.26c2.81-3.52,5.79-6.85,8.96-9.9,10.23-9.87,19.28-17.2,27.54-22.27,19.84-12.18,38.64-31.3,50.91-44.99,1.57-1.76,2.67-.18,1.25,1.79-18.07,25.13-27.49,34.81-34.39,38.43-10.55,5.53-12.5-5.1-27.57,5.12-2.5,1.7-14.66,11.29-24.79,23.57-7.71,9.34-16.87,23.91-13.89,21.16,5.29-4.9,9.4-9.67,11.98-12.9Z"/>
      <path class="cls-9" d="M17.42,89.16c3.61-4.62,7.64-8.91,11.84-13.01,8.29-8.29,17.23-16.14,27.23-22.35,16.81-11.5,31.67-25.63,45.57-40.5,0,0,1.49-1.6,1.49-1.6.46-.49.93-1.05,1.6-1.38.7-.43,2.11-.3,2.59.56.26.41.35.84.36,1.16.01,1.07-.38,1.76-.91,2.54-7.3,9.77-14.85,19.38-23.24,28.25-5.13,5.02-10.74,11.3-18.42,11.69-2.97.03-5.8-1.03-8.7-1.04-4.28.04-8.11,2.14-11.6,4.54-15.52,12.34-29.59,27.13-39.78,44.21-.03.06-.05.15-.05.13,0,.06.01-.22-.27-.29-.1-.02-.15,0-.15,0,.03-.01.21-.14.34-.26,4.4-3.84,8.42-8.11,12.09-12.67h0ZM17.65,89.35c-3.82,4.72-7.84,9.33-12.3,13.47-.03.02-.07.04-.13.06-.04.02-.13.04-.28.02-.55-.14-.35-.73-.31-.91,2.24-5.08,5.48-9.64,8.48-14.28,7.32-11.09,16.79-20.72,27.28-28.81,4.7-3.56,10.3-7.04,16.46-6.84,2.97.15,5.75,1.35,8.66,1.4,0,0,1.05-.01,1.05-.01,0,0,1.04-.15,1.04-.15,12.55-2.25,30.3-29.9,37.89-40.61.09-.21.12-.43.11-.49,0-.05-.02.02.06.12.07.15.32.29.49.29.28-.01.09-.01-.05.15-2.63,2.97-5.3,5.99-8.02,8.87-12.06,12.85-25.08,25.09-40.01,34.62-10.07,5.88-19.55,12.75-28.24,20.54-4.44,3.82-8.51,8.02-12.17,12.58h0Z"/>
    </g>
    <g>
      <path class="cls-1" d="M42.28,100.21c13.62-10.62,21.49-27.37,50.26-44.02,0,0,25.26-21.67,25.26-21.67h0c-4.41,9.52-10.18,14.44-14.52,17.16-10.05,6.3-16.95,3.61-27.57,11.21-5.23,3.74-8.89,8.2-12.67,12.82-4.82,5.89-5.14,4.23-10,9.05-1.22,1.21-3.65,4.59-7.68,6.83-1.58.88-3.03,3.47-4.98,5.25-14.3,13.08-30.86,28.91,1.9,3.37Z"/>
      <path class="cls-9" d="M42.19,100.09c9.82-7.89,16.65-18.8,25.78-27.46,6.02-5.94,12.83-11.06,20-15.55.63-.42,3.42-1.99,4.04-2.51,1.07-.92,4.82-4.13,5.9-5.06,3.28-2.77,20.88-17.58,23.87-20.1,0,0-2.76,5.67-2.76,5.67-4.08,8.65-11.06,16.19-20.09,19.69-5.84,2.37-12.24,2.6-17.85,5.45-2.77,1.34-5.33,3.09-7.68,5.08-4.83,4.02-8.17,9.34-12.33,14-1.09,1.2-2.49,2.21-3.68,3.1-2.53,1.85-4.23,4.17-6.45,6.51-1.58,1.74-3.61,2.99-5.54,4.32-1.03.99-1.94,2.33-2.97,3.44-5.59,5.49-13.45,11.63-18.47,17.04,0-.26-.25-.54-.52-.54,6.48-3.41,12.73-8.57,18.76-13.08h0ZM42.37,100.33c-5.55,4.29-10.96,8.77-16.64,12.93-.6.41-1.19.84-1.88,1.13-.16.03-.19.15-.69.06-.31-.07-.55-.43-.53-.73.05-.55.36-.89.64-1.3,2.71-3.38,5.82-6.41,8.84-9.49,2.69-2.74,5.65-5.31,8.31-8.04,1.54-1.82,3-3.95,5.27-5.05,2.66-1.64,4.44-3.81,6.7-6.09,2.15-2.22,5.15-3.71,7.37-5.76,4.29-4.33,8.14-9.56,13.01-13.42,4.81-4.09,10.68-6.85,16.8-8.29,6.01-1.42,11.78-3.65,16.44-7.73,4.61-3.94,8.12-9.04,10.57-14.58l2.09,1.58c-3.73,3.25-20.55,17.99-23.89,20.8-.75.66-1.64,1.44-2.5,1.88-4.44,2.6-8.81,5.45-12.96,8.48-6.64,4.92-12.96,10.31-18.87,16.21-5.99,5.83-11.48,12.26-18.09,17.42h0Z"/>
    </g>
    <g>
      <path class="cls-11" d="M114.45,28.39c-5.94,1.45-16.98,4.9-25.18,12.85-.88.85-15.41,15.36-9.42,29.52,1.34,3.16,3.42,5.65,2.53,9.46-1.49,6.4-9.87,10.06-10.74,10.43-10.04,4.24-16.54-.28-22.28,3.45-4.83,3.15-1.79,7.37-5.92,19.02-1.41,3.98-5.63,11.26-4.28,9.25,14.65-21.82,16.16-29.34,23.83-29.69,1.93-.09,20.47-15.77,17.2-21.22-4.68-7.81,36.79-44.4,34.25-43.07Z"/>
      <path class="cls-9" d="M114.51,28.53c-10.53,2.63-21.04,7.86-27.5,16.75-3.19,4.36-5.76,9.23-6.74,14.35-.46,2.52-.5,5.13.09,7.62.56,2.74,1.98,4.75,3.09,7.42,2.75,6.17-2.35,12.61-7.48,15.46-4.89,3.13-11.06,4.27-16.74,3.85-2.79-.12-5.46-.34-7.68.5-2.42.85-3.78,2.49-4.09,5.13-.4,2.68-.72,5.57-1.42,8.24-1.12,4.8-3.31,9.27-5.71,13.54,0,0-.49.91-.49.91l-.23.44-.05.1s-.02.03-.02.03c.01-.07-.03.17.02-.15.53-.66-1.49-.59-1.09-.47,4.82-6.75,9.13-13.9,13.49-20.99,1.52-2.35,2.99-4.81,5.07-6.73,1.51-1.54,3.71-2.44,5.87-2.61.44-.17,1.04-.6,1.5-.93,4.26-3.27,8.22-7.23,11.52-11.45,1.4-1.86,3.18-4.3,3.32-6.52.05-.6-.29-.95-.49-1.49-1.33-4.64,3.84-10.52,6.44-13.93,7.03-8.43,15.53-16.04,23.48-23.59,1.42-1.37,4.19-3.97,5.56-5.42,0,0,.16-.19.16-.19.02-.01.05-.1.03-.03.08.22.19.12.15.14,0,0-.05.02-.05.02h0ZM114.4,28.25s.03-.02.06-.03c-.02.02.17-.12.25.16-.06.2-.15.26-.27.4-.21.24-.85.89-1.08,1.13-7.38,7.22-14.6,14.77-21.2,22.69-3.47,4.24-6.97,8.57-9.56,13.19-.74,1.52-1.69,3.26-1.34,4.8.9,1.47.74,3.44.12,4.91-1.99,4.68-5.81,8.25-9.44,11.63-2.1,1.87-4.24,3.65-6.61,5.23-.82.48-1.38,1.01-2.49,1.12-1.85.07-3.6.69-5.01,1.97-2.05,1.76-3.55,4.1-5.06,6.34-4.31,6.79-8.88,14.46-13.28,21.26,0,0-.09.1-.09.1.37.16-1.71.25-1.15-.47.06-.37.04-.17.06-.28l.03-.09.06-.14c.37-.79,1.2-2.46,1.59-3.28,1.84-3.65,3.27-7.48,4.03-11.49.56-2.66.72-5.3,1.07-8.15.18-1.4.56-3.07,1.62-4.43,5.12-6.17,13.84-2.32,20.46-4.29,5.53-1.41,12.72-5.38,13.76-11.4.32-3.94-3.08-7.26-3.6-11.21-1.88-8.76,2.55-17.4,8.11-23.86,7.29-8.61,18.23-13.15,28.94-15.8h0Z"/>
    </g>
    <g>
      <path class="cls-8" d="M51,115.22c-1.33,1.64,10.39.15,14.95-3.09.89-.64,2.19-1.48,3.36-3.38,2.32-3.75,1.79-8.19,7.67-13.77,1.82-1.73,6.73-4.81,16.55-10.97,6.04-3.79,6.6-3.95,7.57-5.17,1.13-1.43,1.62-2.8,1.76-4.15.37-3.59.3-10.43-.56-13.46-2.68-9.5,14.44-16.92,14.66-12.37.2,4.3-61.58,60.99-65.96,66.36Z"/>
      <path class="cls-9" d="M51.11,115.31c-.16.22.02.22.2.3,3.84.35,7.79-.86,11.33-2.26,3.9-1.55,6.52-4.66,7.4-8.81.89-3.61,2.71-7.38,5.44-10.07,3.16-3.21,8.08-5.89,11.76-8.41,3.54-2.23,7.13-4.49,10.69-6.64,1.96-1.04,3.32-2.93,3.49-5.15.34-4.25.45-8.67-.38-12.84-1.66-7.53,6.13-13.31,12.69-14.57,1.24-.14,2.72-.28,3.58,1.01.42.61.24,1.61-.14,2.1-3.4,4.73-7.76,8.67-11.71,12.92-5.82,6.06-11.54,12.21-17.43,18.2-11.59,12.16-25.23,22.18-36.93,34.2h0ZM50.88,115.12c14.47-15.04,28.97-30.56,44.73-44.28,7.14-6.71,14.89-13.41,20.51-21.45.82-1.36-1.25-1.31-2.14-1.08-5.51,1.37-12.52,7.03-10.26,13.29.87,4.86,1.13,9.9.32,14.77-.67,2.43-2.3,4.45-4.43,5.69,0,0-10.66,6.71-10.66,6.71-3.49,2.27-8.45,4.96-11.47,7.69-2.63,2.42-4.32,5.31-5.57,8.72-1,3-3.04,6.12-6.01,7.61-3.77,2.04-8.06,2.8-12.27,3.22-.87.07-3.45.22-2.75-.9h0Z"/>
    </g>
    <path class="cls-7" d="M90.17,18.46c-17.51,1.7-24.64,7.44-27.78,12.8-4.35,7.44-1.9,15.66-6.97,18.32-5.44,2.86-10.48-5.47-17.49-3.68-8.97,2.28-7.91,17.77-20.37,35.22-4.79,6.7-9.83,11.27-13.06,13.9"/>
    <g>
      <path class="cls-5" d="M80.45,15.88c2.82-4.06-3.67-1.52-10.76,7.46-9.18,11.64-4.1,15.42-7.54,30.69-1.53,6.78-5,12.39-6.72,14.36-10.87,12.43-14.11,10.26-25.37,20.65-9.09,8.39-13.3,21.57-11.86,19.57,4.1-5.68,5.41-3.19,22.32-29.95,7.8-12.35,18.11-21.79,22.63-33.41,8.68-22.31,12.78-22.85,17.31-29.38Z"/>
      <path class="cls-9" d="M80.33,15.8c.6-.9,1.32-2.32-.83-1.23-3.15,1.77-5.6,4.61-7.79,7.44-5.08,6.53-6.97,11.2-6.66,19.52-.03,7.46-1.16,15.22-4.61,21.94-3.32,6.73-9.29,12.14-15.43,16.37-6.15,3.85-12.2,7.71-17.07,13.12-3.88,4.55-7.42,9.84-9.24,15.6,0,0-.02.11-.02.11-.01-.03,0-.07-.05-.2,0-.04-.26-.39-.53-.39-.38,0-.32.05-.45.1-.16.14.03-.05.11-.16,0,0,.29-.37.29-.37,1.91-2.44,4.38-4.35,6.31-6.68,6.34-7.41,11.43-15.74,16.5-24.06,5.11-8.29,11.58-15.76,16.78-23.91,3.97-6.11,5.97-13.19,9.63-19.51,2.33-4.32,5.08-8.48,8.37-12.12,1.65-1.81,3.3-3.6,4.71-5.58h0ZM80.57,15.97c-2.84,3.96-6.4,7.37-8.63,11.74-4.84,8.53-6.64,18.49-12.07,26.73-5.38,8.26-12.34,15.16-17.88,23.23-5.47,7.91-10.75,16.52-16.83,24-1.99,2.49-4.43,4.61-6.24,7.21-.12.12-.08.2-.48.54-.16.06-.13.14-.55.13-.46-.07-.68-.47-.69-.73.06-1.63.83-3.12,1.36-4.58,2.83-6.88,7.14-13.29,12.86-18.13,3.61-3.31,7.93-6.01,11.95-8.68,3.96-2.68,7.32-6.02,10.45-9.62,1.51-1.63,2.68-3.69,3.75-5.77,3.25-6.37,4.33-13.48,4.6-20.59.03-4.89.85-10.42,3.79-14.54,2.74-4.2,6.29-7.7,10.23-10.73,1.39-.94,2.81-2.17,4.54-2.35.17,0,.43.1.52.33.17.75-.34,1.26-.68,1.81h0Z"/>
    </g>
    <path class="cls-7" d="M108.02,38.74c-4.27,17.68-12.08,22.19-18.47,23.01-9.37,1.22-17.47-5.25-21.8-.85-6.15,6.26,5.23,24.44-.1,27.61-5.83,3.46-22.51-16.38-29.49-12.77-5.04,2.61,1.7,13.97-5.01,21.53-3.22,3.63-8.64,5.37-11.33,6.24-3.31,1.07-6.33,1.51-8.53,1.71"/>
    <path id="head" class="cls-6" d="M126.15,66.73c15.51-13.53,17.85-36.24,5.23-50.71-12.63-14.47-35.44-15.23-50.95-1.7-.96.84-1.87,1.71-2.73,2.61,7.75.88,9.38,5.14,10.09,6.55,3.24,6.43,8.04,6.89,9.81,16.27,1.83,9.71,12.66,12.8,21.13,18.96,3,2.19,4.9,4.31,4.45,10.37-.08,1.09,1.89-1.41,2.96-2.35Z"/>
  </g>
</svg>