<?xml version="1.0" standalone="no"?>
<!DOCTYPE svg PUBLIC "-//W3C//DTD SVG 20010904//EN"
 "http://www.w3.org/TR/2001/REC-SVG-20010904/DTD/svg10.dtd">
<svg version="1.0" xmlns="http://www.w3.org/2000/svg"
 width="500.000000pt" height="500.000000pt" viewBox="0 0 500.000000 500.000000"
 preserveAspectRatio="xMidYMid meet">
<metadata>
Created by potrace 1.14, written by Peter Selinger 2001-2017
</metadata>
<g transform="translate(0.000000,500.000000) scale(0.100000,-0.100000)"
fill="#000000" stroke="none">
<path d="M760 4073 c-68 -17 -120 -45 -159 -85 -36 -37 -86 -134 -97 -188 -10
-47 -9 -352 1 -470 24 -284 -1 -462 -81 -583 -72 -108 -177 -169 -297 -172
-60 -1 -72 -4 -88 -24 -28 -34 -33 -68 -16 -94 13 -20 24 -23 84 -24 116 -2
226 -67 302 -176 33 -48 69 -122 77 -157 2 -11 6 -30 9 -42 20 -83 25 -296 11
-453 -10 -109 -12 -379 -3 -418 35 -162 142 -257 291 -260 36 -1 66 -6 66 -10
0 -5 5 -5 12 -1 7 4 70 8 140 9 115 1 130 4 147 22 23 24 28 48 18 85 -5 17
-13 25 -24 24 -10 -2 -28 1 -40 5 -13 5 -23 5 -23 1 0 -13 -282 -7 -325 7 -83
28 -135 89 -149 176 -10 57 -10 192 -1 315 12 170 14 200 15 310 3 200 -25
323 -101 451 -38 63 -136 169 -157 169 -5 0 -15 6 -21 14 -9 10 -6 17 11 29
35 23 91 78 120 117 33 45 91 150 82 150 -4 0 -1 6 5 14 7 8 14 23 16 35 11
50 14 61 24 96 6 21 8 42 5 47 -3 4 -1 8 4 8 10 0 7 355 -3 470 -3 36 -7 110
-8 165 -7 280 46 327 357 317 75 -2 148 -1 162 2 15 4 32 22 44 46 19 37 19
43 6 62 -14 20 -24 21 -190 23 -115 1 -192 -3 -226 -12z"/>
<path d="M3834 4075 c-18 -14 -20 -46 -4 -75 26 -48 34 -50 225 -49 183 1 220
-5 271 -41 23 -17 60 -70 49 -70 -4 0 -2 -6 4 -14 11 -13 23 -281 13 -291 -14
-14 -21 -504 -8 -555 3 -14 8 -36 11 -49 19 -96 66 -204 123 -280 33 -45 110
-121 122 -121 22 0 8 -26 -26 -49 -57 -40 -129 -127 -169 -206 -20 -41 -38
-80 -39 -87 -1 -7 -8 -38 -14 -68 -6 -30 -14 -73 -17 -95 -7 -42 -6 -246 0
-330 17 -215 23 -395 13 -401 -4 -3 -5 -11 -2 -19 3 -8 -2 -37 -11 -66 -21
-63 -78 -121 -137 -139 -50 -15 -226 -22 -234 -9 -3 5 -10 6 -16 3 -5 -4 -41
-6 -79 -6 -79 0 -99 -15 -91 -68 8 -55 34 -65 170 -65 67 0 122 -3 122 -7 0
-4 6 -5 13 -3 6 3 39 7 72 9 136 10 216 59 270 167 15 28 29 69 32 92 7 55 7
291 -2 392 -10 130 -12 385 -3 391 4 3 6 9 3 14 -9 14 23 139 50 197 27 60 78
130 121 166 27 22 120 79 126 76 2 0 16 3 31 6 15 4 54 8 85 9 52 1 58 3 70
29 11 23 11 34 1 59 -17 40 -46 56 -99 53 -51 -3 -159 29 -187 54 -10 9 -25
20 -34 23 -9 4 -30 24 -45 45 -16 21 -34 43 -39 49 -13 14 -43 84 -54 126 -1
4 -7 22 -12 40 -22 73 -28 256 -15 408 10 117 15 430 6 458 -4 15 -14 47 -21
72 -14 48 -60 124 -94 153 -34 29 -107 64 -155 73 -64 12 -380 11 -396 -1z"/>
<path d="M2987 3324 c-1 -1 -47 -5 -102 -8 -55 -4 -109 -8 -120 -10 -64 -9
-106 -19 -110 -26 -3 -5 -6 -363 -6 -797 0 -721 -1 -785 -15 -748 -9 22 -22
56 -30 75 -7 19 -50 134 -95 255 -167 454 -382 973 -489 1185 l-30 60 -108 0
-107 -1 -21 -47 c-12 -26 -40 -87 -63 -135 -22 -49 -41 -90 -41 -92 0 -2 -16
-38 -35 -79 -19 -42 -35 -78 -35 -81 0 -3 -9 -24 -19 -48 -64 -144 -172 -417
-302 -767 -44 -118 -98 -262 -120 -320 -21 -58 -39 -111 -39 -118 0 -9 33 -12
119 -12 l119 0 16 43 c9 23 44 121 78 217 l63 174 384 1 383 0 77 -215 77
-215 235 -3 235 -2 0 315 -1 315 130 1 c416 2 627 71 744 243 65 94 99 263 77
381 -2 11 -7 37 -10 59 -13 69 -58 149 -121 211 -102 103 -238 159 -435 181
-51 6 -278 12 -283 8z m298 -217 c17 -4 41 -9 55 -12 46 -9 146 -64 176 -97
55 -61 69 -103 69 -208 0 -52 -3 -104 -7 -115 -18 -56 -31 -78 -68 -114 -85
-82 -196 -111 -443 -116 -113 -2 -169 1 -174 8 -12 20 -9 639 3 652 13 12 336
14 389 2z m-1335 -235 c33 -81 65 -156 70 -167 17 -38 158 -415 167 -447 5
-17 -14 -18 -311 -18 l-316 0 10 23 c5 12 35 92 66 177 31 85 61 166 67 180 5
14 11 30 13 35 5 20 76 188 108 258 18 40 36 82 40 95 4 12 11 20 16 17 4 -3
36 -71 70 -153z"/>
</g>
</svg>
