<?xml version="1.0" encoding="UTF-8"?>
<svg id="Logo" xmlns="http://www.w3.org/2000/svg" version="1.1" xmlns:xlink="http://www.w3.org/1999/xlink" viewBox="0 0 650 500">
  <!-- Generator: Adobe Illustrator 29.6.0, SVG Export Plug-In . SVG Version: 2.1.1 Build 207)  -->
  <defs>
    <style>
      .st0 {
        fill: url(#linear-gradient2);
      }

      .st1 {
        fill: #033;
      }

      .st2 {
        stroke: #e8c4aa;
        stroke-width: 6px;
      }

      .st2, .st3, .st4 {
        fill: #f5eae0;
      }

      .st2, .st3, .st5 {
        display: none;
      }

      .st2, .st6, .st7 {
        stroke-miterlimit: 10;
      }

      .st8 {
        fill: url(#linear-gradient1);
      }

      .st9 {
        fill: url(#linear-gradient7);
      }

      .st10 {
        fill: url(#linear-gradient4);
      }

      .st11 {
        fill: url(#linear-gradient5);
      }

      .st12 {
        fill: url(#linear-gradient3);
      }

      .st6 {
        fill: none;
      }

      .st6, .st7 {
        stroke: #033;
      }

      .st13 {
        fill: url(#linear-gradient6);
      }

      .st14 {
        fill: url(#linear-gradient);
      }

      .st7 {
        fill: url(#linear-gradient8);
        stroke-width: 3px;
      }
    </style>
    <linearGradient id="linear-gradient" x1="423.8" y1="-112" x2="526.5" y2="51.5" gradientTransform="translate(188.2 -300) rotate(63) scale(1.2 1.1) skewX(2.3)" gradientUnits="userSpaceOnUse">
      <stop offset="0" stop-color="#b0bcbf" stop-opacity=".9"/>
      <stop offset="0" stop-color="#94a2a5" stop-opacity=".9"/>
      <stop offset=".4" stop-color="#4f6263" stop-opacity=".9"/>
      <stop offset=".5" stop-color="#2d4343" stop-opacity=".9"/>
      <stop offset=".6" stop-color="#45595a" stop-opacity=".9"/>
      <stop offset=".9" stop-color="#839395" stop-opacity=".9"/>
      <stop offset="1" stop-color="#b0bcbf" stop-opacity=".9"/>
    </linearGradient>
    <linearGradient id="linear-gradient1" x1="915.5" y1="348.4" x2="822.9" y2="117.8" gradientTransform="translate(1450.2 62.4) rotate(-179.6) scale(1 -1)" gradientUnits="userSpaceOnUse">
      <stop offset="0" stop-color="#b0bcbf" stop-opacity=".9"/>
      <stop offset="0" stop-color="#94a2a5" stop-opacity=".9"/>
      <stop offset=".4" stop-color="#4f6263" stop-opacity=".9"/>
      <stop offset=".5" stop-color="#2d4343" stop-opacity=".9"/>
      <stop offset=".6" stop-color="#45595a" stop-opacity=".9"/>
      <stop offset=".9" stop-color="#839395" stop-opacity=".9"/>
      <stop offset="1" stop-color="#b0bcbf" stop-opacity=".9"/>
    </linearGradient>
    <linearGradient id="linear-gradient2" x1="678.5" y1="624.7" x2="582.2" y2="390.3" gradientTransform="translate(-9.9 668.2) rotate(3.3) scale(.9 -.9) skewX(-1.9)" gradientUnits="userSpaceOnUse">
      <stop offset="0" stop-color="#b0bcbf" stop-opacity=".9"/>
      <stop offset="0" stop-color="#94a2a5" stop-opacity=".9"/>
      <stop offset=".4" stop-color="#4f6263" stop-opacity=".9"/>
      <stop offset=".5" stop-color="#2d4343" stop-opacity=".9"/>
      <stop offset=".6" stop-color="#45595a" stop-opacity=".9"/>
      <stop offset=".9" stop-color="#839395" stop-opacity=".9"/>
      <stop offset="1" stop-color="#b0bcbf" stop-opacity=".9"/>
    </linearGradient>
    <linearGradient id="linear-gradient3" x1="553.5" y1="456.7" x2="407.6" y2="203.8" gradientTransform="translate(0 560) scale(1 -1)" gradientUnits="userSpaceOnUse">
      <stop offset="0" stop-color="#b0bcbf" stop-opacity=".9"/>
      <stop offset="0" stop-color="#94a6a9" stop-opacity=".9"/>
      <stop offset=".3" stop-color="#4e7071" stop-opacity=".9"/>
      <stop offset=".5" stop-color="#033" stop-opacity=".9"/>
      <stop offset=".6" stop-color="#184546" stop-opacity=".9"/>
      <stop offset=".8" stop-color="#577678" stop-opacity=".9"/>
      <stop offset="1" stop-color="#b0bcbf" stop-opacity=".9"/>
    </linearGradient>
    <linearGradient id="linear-gradient4" x1="622.8" y1="419.1" x2="494.2" y2="196.2" gradientTransform="translate(8.5 628.2) rotate(-7.1) scale(1 -1)" gradientUnits="userSpaceOnUse">
      <stop offset="0" stop-color="#b0bcbf" stop-opacity=".9"/>
      <stop offset="0" stop-color="#94a2a5" stop-opacity=".9"/>
      <stop offset=".4" stop-color="#4f6263" stop-opacity=".9"/>
      <stop offset=".5" stop-color="#2d4343" stop-opacity=".9"/>
      <stop offset=".6" stop-color="#45595a" stop-opacity=".9"/>
      <stop offset=".9" stop-color="#839395" stop-opacity=".9"/>
      <stop offset="1" stop-color="#b0bcbf" stop-opacity=".9"/>
    </linearGradient>
    <linearGradient id="linear-gradient5" x1="589.2" y1="425" x2="471.3" y2="220.8" gradientTransform="translate(1.7 602.9) rotate(.3) scale(1 -1.1) skewX(-.6)" gradientUnits="userSpaceOnUse">
      <stop offset="0" stop-color="#b0bcbf" stop-opacity=".9"/>
      <stop offset="0" stop-color="#94a2a5" stop-opacity=".9"/>
      <stop offset=".4" stop-color="#4f6263" stop-opacity=".9"/>
      <stop offset=".5" stop-color="#2d4343" stop-opacity=".9"/>
      <stop offset=".6" stop-color="#45595a" stop-opacity=".9"/>
      <stop offset=".9" stop-color="#839395" stop-opacity=".9"/>
      <stop offset="1" stop-color="#b0bcbf" stop-opacity=".9"/>
    </linearGradient>
    <linearGradient id="linear-gradient6" x1="602.2" y1="365.9" x2="507.8" y2="202.2" gradientTransform="translate(-39.5 428) rotate(10.9) scale(1 -1)" gradientUnits="userSpaceOnUse">
      <stop offset="0" stop-color="#b0bcbf" stop-opacity=".9"/>
      <stop offset="0" stop-color="#94a2a5" stop-opacity=".9"/>
      <stop offset=".4" stop-color="#4f6263" stop-opacity=".9"/>
      <stop offset=".5" stop-color="#2d4343" stop-opacity=".9"/>
      <stop offset=".6" stop-color="#45595a" stop-opacity=".9"/>
      <stop offset=".9" stop-color="#839395" stop-opacity=".9"/>
      <stop offset="1" stop-color="#b0bcbf" stop-opacity=".9"/>
    </linearGradient>
    <linearGradient id="linear-gradient7" x1="503.3" y1="485.8" x2="384.8" y2="280.6" gradientTransform="translate(111.8 795.4) rotate(-29.2) scale(.9 -.8) skewX(28)" gradientUnits="userSpaceOnUse">
      <stop offset="0" stop-color="#b0bcbf" stop-opacity=".9"/>
      <stop offset="0" stop-color="#94a2a5" stop-opacity=".9"/>
      <stop offset=".4" stop-color="#4f6263" stop-opacity=".9"/>
      <stop offset=".5" stop-color="#2d4343" stop-opacity=".9"/>
      <stop offset=".6" stop-color="#45595a" stop-opacity=".9"/>
      <stop offset=".9" stop-color="#839395" stop-opacity=".9"/>
      <stop offset="1" stop-color="#b0bcbf" stop-opacity=".9"/>
    </linearGradient>
    <linearGradient id="linear-gradient8" x1="614.1" y1="462.6" x2="533.4" y2="382" gradientTransform="translate(0 560) scale(1 -1)" gradientUnits="userSpaceOnUse">
      <stop offset="0" stop-color="#88a699"/>
      <stop offset="0" stop-color="#6c8e84"/>
      <stop offset=".3" stop-color="#456d67"/>
      <stop offset=".5" stop-color="#275450"/>
      <stop offset=".7" stop-color="#114140"/>
      <stop offset=".8" stop-color="#043636"/>
      <stop offset="1" stop-color="#033"/>
    </linearGradient>
  </defs>
  <g id="Backgrounds" class="st5">
    <rect id="square" class="st3" x="-34.1" y="-78.8" width="700" height="700"/>
    <circle id="circle" class="st4" cx="315.9" cy="271.2" r="340"/>
    <polygon class="st2" points="315.9 -38.9 91.7 69 36.4 311.5 191.5 506.1 440.3 506.1 595.4 311.5 540.1 69 315.9 -38.9"/>
  </g>
  <g id="Jellyfish">
    <path class="st6" d="M553.7,108c-42.4,16.5-52.5,34-53.9,47-2.6,23.5,22.8,37.8,15.8,62.9-3.8,13.5-14.5,21.5-32.8,35.1-25.7,19-46.7,22.6-58.5,43.6-3.6,6.4-5.1,12.3-5.8,16.1"/>
    <g>
      <path class="st14" d="M410.1,282.9c-5.2,10.5,17.1-7,32.8-25,21.2-24.3,18.7-46.8,38.5-90.2,11.2-24.5,31.1-37.9,33.6-39.5,2.9-1.9,14.2-4,20.5-14.2.7-1.2,4.2-6.9,2.7-8.8-1.4-1.9-7.5-.5-9.9,3.6-2.2,3.9,0,8.4.3,12.7,1.3,12.2-11.6,21-15.9,27.4-11.7,17.8-24.2,31.9-38.8,47.5-52.9,56.9-60,78.5-64,86.6h.2Z"/>
      <path class="st1" d="M410.2,282.9c-3.6,7.3,7.2-1.1,8.8-2.4,3.7-3,7.3-6.2,10.7-9.6,6.8-6.7,13.4-13.8,18.6-21.7,5.3-7.9,8.8-16.8,11.8-25.8,6.4-20.6,12.8-41.5,22.8-60.7,5.9-10.6,13.6-20,22.6-28,3.2-2.7,6.4-5.6,10.1-7.7,2.7-1.2,5.6-2.2,8.2-3.6,6.2-3.2,11.3-8.8,13.5-15.4.3-.8.5-2,0-2.6-.6-.5-1.8-.5-2.6-.3-2.1.4-4.1,1.7-5.3,3.4-2.9,4.6.8,10.1.4,15.3-.5,11-10.4,17.8-16.2,26-20.3,31.3-48.6,56.3-72.1,85.1-12.2,14.7-23.8,30.3-31.4,47.9h.1ZM409.9,282.9c12.6-28.6,32.7-53.3,53.1-76.8,15.9-17.6,32.9-35.1,46.3-54.7,1.2-1.7,2.9-4.4,4.3-5.9,5.9-6.8,14.3-13.4,13.9-23.2,0-3.4-1.7-7.2-1.1-10.9.5-4.1,4.2-7.2,8.1-7.8,2.3-.5,5.2.2,4.9,3.2-.4,3.2-2.2,5.9-3.9,8.5-1.4,2-3.1,3.9-5,5.4-3.8,3.1-8.3,5.1-12.8,6.8-4.4,1.7-7.9,5.2-11.6,8.1-10.8,9.4-19.5,21.2-24.9,34.5-3.8,8.8-7.1,17.8-10,26.9-4.5,13.6-7.8,27.9-14,40.9-6,13.3-16.4,24-27,33.7-2.3,2.3-25.3,22.6-20.3,11.3h0Z"/>
    </g>
    <g>
      <path class="st8" d="M531.8,402.5c-5.5,8.5-1.8-16.8,4.8-37,9-27.2,26.2-34.3,49.5-68.2,13.1-19.1,14.8-40.8,15-43.5,1.7-26.3-4.4-22.5,4.3-38.7,7.9-14.8,5.8-9.5,23.9-38.6,1-1.6-4.4,24.2-28.8,63.4-16.7,26.8-24,48.5-32,75.2-19.7,66.3-32.4,80.9-36.7,87.5h0Z"/>
      <path class="st1" d="M531.9,402.7c-.5.7-.9,1.6-1.8,1.8-.6,0-.9-.7-1-1.2-.5-4,.3-7.9.9-11.9.8-5.2,2-10.4,3.2-15.5,5.7-25.2,15.3-35.5,31.9-54,6.9-7.9,13.5-16,19.6-24.6,12.1-17.1,17.3-38.6,16-59.4-.4-5.2-1.3-10.8.9-15.8,4-9.7,10-18.8,15.6-27.6,3.7-5.8,7.3-11.8,10.9-17.7l.3-.4v-.2c.2,0,0,0,.6-.4,1.5-.1,1.3,1.1,1.3.8,0,.7-.2,1.6-.3,2.2-4.5,18.1-12.8,34.9-21.8,51.1-5.2,9.2-11,17.9-15.8,27.3-9.8,18.6-16.5,38.6-22.6,58.7-6.2,20.1-13.4,40.2-22.2,59.4-4.4,9.6-9.5,18.9-15.7,27.5h0ZM531.7,402.4c6.1-8.6,11.1-17.9,15.2-27.7,12.6-29.1,19.2-60.2,29.8-90.1,3.7-10,7.9-19.7,12.9-29.1,4.9-9.4,10.8-18.2,16.1-27.3,9.2-16.2,17.9-33,22.7-51v-.7c0-.3,0,.8,1.2.7.5-.3.3-.3.3-.3v.2c-3.9,6-7.8,12-11.7,17.9-5.9,8.7-11.6,17.6-15.8,27.2-2.2,4.9-1.2,10.2-.8,15.4,2.5,37-10.6,59.2-34.5,85.9-7,7.9-14.6,15.3-20.6,23.8-9.1,12.9-13.1,28.7-16.2,44-.6,3-2.8,17.3,1.3,11.1h0Z"/>
    </g>
    <g>
      <path class="st0" d="M612.1,139.5c3.9-7.3-6.9-13.5-11-6.3-.8,1.3-1.4,2.7-1.8,4.1-4.6,14.6,13.9,20.3,12.8,42.2-1.7,33.6-34.8,65.3-40.4,69.8-21.5,17.5-34.4,19.9-43.9,38.4-7.1,13.7-10.4,47.5-6.2,38.2,13.9-30.9,12.9-39.1,25.8-59.8,10.1-16.1,55.5-80.5,56.6-104.2.3-6.1,3.8-14.4,8.1-22.4h0Z"/>
      <path class="st1" d="M611.9,139.5c3.5-5.9-4.8-12.5-9.6-7.5-2.2,2.7-3.4,6.4-3.4,9.9s2.9,8.9,5.6,12.8c6,8.3,9.8,17.1,8.5,27.6-2.7,26.4-21.4,50.3-40.6,67.4-5.7,4.5-11.6,8.7-17.7,12.6-9,5.9-18.3,12-23.9,21.3-4.6,7-6.6,15.4-8.1,23.5-.8,4.7-1.5,9.5-1.8,14.2,0,1.8-.2,3.7.2,5.3h0c0-.3-.6-.4-.8-.3,2.5-5.8,5.7-13.4,8.1-19.9,5-13.6,9.3-27.7,17.2-40.1,15.5-24.3,32.2-48.2,46.1-73.4,4.5-8.4,9-17.1,11.4-26.3.6-2.4.7-4.7,1.1-7.1,1.3-7.2,4.6-13.8,8-20.2h0l-.3.2ZM612.2,139.7c-3.3,6.4-6.6,13-7.7,20.1-.3,2.4-.3,4.8-.8,7.2-2.1,9.5-6.3,18.3-10.5,27.1-12.9,26-29.5,49.9-45.2,74.2-2.5,4.1-4.9,8.2-6.9,12.5-5.9,13.1-10,27.1-16.1,40.3l-1.5,3.3-.7,1.7c-.3.7-.7,1.7-1.4,2.3,0,.1-.2.2-.5.3h-.5c-.5,0-1-.3-1.2-.6-.2-.3-.3-.7-.4-1-.3-1.9,0-3.8,0-5.7.4-4.9,1.2-9.7,2.2-14.4,2-9.5,4.9-19.1,10.9-26.8,5.8-7.9,14.2-13.1,22.2-18.5,7.9-5.4,15.8-11,22.5-17.9,15.4-16.3,29.2-35.7,33.5-58.1,2.2-11.7,0-20.2-6.8-30.1-2.5-4.1-5.4-8.5-5.2-13.5.2-3.7,1.4-7.4,3.8-10.2,5.1-5.1,14,1.6,10.3,8h0v-.2Z"/>
    </g>
    <path class="st6" d="M440,332.9c13.8-9.6,5.5-23-5.6-36.6-12.4-15.3,31.4,1.2,30.9-16.2-.5-19.1-1.3-30,22.3-39.9,24.1-10.2-.6-15.3.6-34.2,1.1-16.7,2.9-25.7,8.7-30.8,9.7-8.5,26.5,8,29.2-5s2.1-16.4,9.9-19.2c7.4-2.6,12.5-7.5,14.3-10.6"/>
    <path class="st6" d="M617.5,160.5c-7.5,4-36.1,13.7-45.5,22.8-4.3,4.1-19.4,20.7-14.4,39.7,4.5,17.2,21.2,18.7,24.2,35.8,2.6,15-7.7,27.6-11.4,31.7-15.2,16.5-34.3,13.8-41.3,26.6-3.2,5.9-4.3,16,8.5,33.6"/>
    <path class="st6" d="M609.5,153c5.8,21.7,16.5,83-8.7,95-3.4,1.6-23.5,4.4-32.5,21.2-6.8,12.8-12.3,24.9-1.8,61.9,5.9,20.9-1.2,34.4-7.7,41.6"/>
    <g>
      <path class="st12" d="M435.7,327.9c2.3-9.4,5.1-18.7,8.5-27.5,11-28.6,22-51.2,33.5-68.6,27.6-41.9,47-96.3,58.4-134.2,1.5-4.9,5.1-2.8,4.1,2.4-12.4,65.5-22,93-32.2,106.4-15.6,20.4-29.1,1.4-49.2,35.1-3.3,5.6-18.4,35.4-26.9,68.6-6.5,25.3-11.2,62.1-7.9,54,5.9-14.4,9.6-27.4,11.7-36.1h0Z"/>
      <path class="st1" d="M435.5,327.9c2.9-12.3,6.9-24.3,11.6-36,6.9-17.7,14.4-35.2,23.9-51.6,2.7-4.7,7-11.4,9.9-16.1,6.5-10.7,12.5-21.8,17.9-33.2,13.6-28.3,24.7-57.9,34.2-87.9l1.4-4.5.4-1.1c0-.4.3-.8.5-1.3l.3-.6c.7-1.4,2.6-2.5,4.1-1.6.4.3.7.6,1,1,1.5,2.5.5,5.5,0,8.1-5,24.8-10.4,49.5-18.2,73.5-2.5,7.5-5.3,14.9-9.1,21.9-14.3,26.6-25.2,14.3-41.7,28-6.9,6.2-11.8,14.5-15.8,22.9-16.9,35.4-28.6,73.5-32.5,112.7,0,.9-.1,1.9,0,2.7,0,0,0-.1-.3,0,5.1-11.5,9.2-24.4,12.3-36.9h0ZM435.8,327.9c-3.2,12.7-6.8,25.5-12.1,37.4,0,0-.1.1-.3.2-.4,0-.6-.3-.7-.4-.1-.3-.1-.5-.2-.7-.3-5.6.7-11.1,1.3-16.6,1.7-12.5,3.7-25,6.7-37.3,5.4-21.5,13.4-42.3,23.3-62.1,27.8-55,45.7-4.2,67.7-72.1,8-25.4,13.1-51.9,17.6-78.1,0-.9-.2-1.6-.7-2.1h0c0,0-.6.5-.8,1.1,0,.3-.2.6-.3,1-13.3,44.2-29.4,88.1-53.9,127.4-14.2,20.8-25.9,43.3-35.5,66.5-5,11.6-9.1,23.5-12,35.8h0Z"/>
    </g>
    <g>
      <path class="st10" d="M494,326.8c16.9-33.1,17-73,58.1-131.7l29.6-65.3h0c0,22.6-6.7,37.5-12.7,46.7-13.9,21.5-29.8,22.5-43.6,47-6.8,12.1-9.9,24.1-13.1,36.6-4.1,15.9-6.2,13-11.3,26.8-1.3,3.5-2.9,12.3-8.8,20.3-2.3,3.2-2.8,9.5-4.9,14.8-16,38.6-33.9,84.6,6.8,4.9h-.1Z"/>
      <path class="st1" d="M493.8,326.7c12-24.4,16.1-51.6,26.5-76.6,5.7-14.7,13.1-29,21.5-42.4,2.5-4.2,6.2-9.4,8.9-13.5,6.8-15.1,25.3-55.4,32.4-70.8.4,19.5-2.7,38.3-14.1,54.5-5.6,8.5-13.6,15.2-21.5,21.3-5.2,4.2-10.3,8.6-14.5,13.8-4.2,5.2-7.7,11-10.5,17-5.9,12.2-7.8,25.6-11.8,38.4-1.1,3.2-2.8,6.3-4.4,9.2-3.3,5.8-4.8,12.3-7,18.7-1.2,3.2-2.6,6.4-4.5,9.3-.8,1.4-1.9,2.6-2.5,4.1-.6,1.4-1,3-1.4,4.6-1.4,7.1-8.3,21.6-10.9,28.3-2.6,6.2-5.1,12.4-7.5,18.7-1,2.9-2.3,5.7-2.7,8.8,0,0,0,.1,0,0h-.1c-.1-.1-.3-.1-.3-.1-.1,0,0,0,.2-.2,2.1-2.3,3.5-5.1,5.2-7.7,6.9-11.5,13-23.5,19.2-35.4h-.2ZM494.1,326.8c-6.1,12-12.2,23.9-18.6,35.8-1.6,2.8-3,5.7-5.1,8.1-.2.2-.3.4-.8.5-.2,0-.7,0-.9-.3-.5-.9,0-1.9,0-2.8,4.3-15.4,10.6-30.2,16.5-45,2.2-4.7,2.7-9.6,4.5-14.4.6-1.6,1.8-3,2.7-4.5,1.7-2.7,3.2-5.7,4.3-8.8,2.2-6.4,4-13,7.5-18.8,1.7-2.9,3.4-5.7,4.5-8.8,2.3-6.2,3.7-12.9,5.7-19.2,3.1-10.5,7.1-20.8,13.2-30,1.4-2,2.9-4.3,4.5-6.1,8.3-10.7,20.5-17.4,29.3-27.5,13.4-15,19.1-35.4,18.8-55.2l2.6.6c-4.3,9.6-23.9,53.5-27.8,61.9-.6,1.2-1.5,3.5-2.2,4.6-2.5,3.8-6,8.8-8.3,12.6-13.2,20.8-23.6,43.4-31.6,66.8-6,17-10.6,34.6-18.8,50.7h0v-.2Z"/>
    </g>
    <g>
      <path class="st11" d="M569.5,120.8c-10.3,8.2-28.7,25-37.5,48-.9,2.5-16.1,44,8.5,66.2,5.5,4.9,11.8,7.9,13.6,16.2,2.9,13.9-10.1,28.6-11.5,30.1-15.7,17.4-32.6,14.5-40.4,27-6.6,10.5,3.2,16,5.8,42.5.9,9.1-.7,27.1,0,22,8.7-56,4.8-72,19.5-79.7,3.7-1.9,25.6-49.4,14.3-57.1-16.3-11,31.4-120.2,27.7-115.3h0Z"/>
      <path class="st1" d="M569.6,120.9c-18.3,14.8-34.3,34.2-39.4,57.6-3,14.1-3.9,29.6,2.3,43,1.8,3.9,4.3,7.5,7.2,10.6,3.1,3.3,6.7,5.5,10.1,8.7,4.9,4.4,7,11.1,6.1,17.6-1.6,12-9.9,23.3-19.2,30.6-4.8,3.7-10.4,6.5-15.9,8.8-7.6,3.1-16.8,6.7-19.2,15.4-.6,2.6-.2,5.4.6,8.2,1.7,5.6,3.8,11.4,4.9,17.3,1.9,8.8,2.3,17.9,1.7,26.9,0,1.6-.3,6.4-.4,8.1,0,0,0,.2,0,.1-.3-.8-1.9.3-1.2,0,2.1-11.8,3.6-23.8,5-35.7.7-5.9,1.3-11.8,2-17.8.8-5.9,1.6-11.9,3.9-17.6,1.6-4.2,4.9-7.8,8.9-9.9,1.1-.8,1.8-2.3,2.5-3.5,2.9-5.1,5.2-10.6,7.3-16.1,3.1-8.2,5.9-16.7,6.7-25.5.2-3.9.4-8.3-3-10.6-4-3.6-3.6-9.6-3.4-14.3,1-12.1,4.4-23.6,8-35.1,6.8-21.9,16.9-46,24.4-66.6h0v-.2ZM569.4,120.7h0c0-.1.2-.3.4-.1v.4c-.2,1-.9,2.8-1.2,3.7-7.8,20.9-15.5,42-21.6,63.4-3.1,11.4-6.2,22.9-7.1,34.7,0,4-.4,8.7,2.2,11.8,4.4,2.8,4.6,8.7,4.2,13.2-.9,9.1-4,17.7-7.4,26.1-2.3,5.5-4.8,11-7.9,16.2-.9,1.4-1.6,2.9-3.1,3.9-7,3.3-9.8,10.3-11.1,17.5-3.6,20.6-4.9,41.6-8.2,62.3v.2c.7-.3-1,1-1.3,0v-1.8c0-1.3.2-5.3.2-6.7.4-8.9-.2-17.8-2.3-26.4-1.3-5.8-3.3-11.2-5.2-17-2.3-7-1.1-12.3,3.9-17.7,4.3-4.6,10.3-6.8,15.8-9.2,4.1-1.7,8-3.6,11.7-6,11.2-7.1,24.4-24.4,21-38.3-1.8-7.7-9.8-11.1-14.9-16.5-1-1.1-2.1-2.3-3-3.5-11.3-14.9-10.6-35.4-6.2-52.6,5.9-23.4,22.7-42.5,41.1-57.4h0v-.2Z"/>
    </g>
    <g>
      <path class="st13" d="M524.7,348c-1.1,4.4,20.4-9.2,26.4-19.7,1.2-2.1,2.9-4.9,3.5-9.7,1.1-9.4-4-17.6,2.4-33.9,2-5,8.8-15.5,22.3-36.5,8.3-12.9,9.3-13.7,10.1-17,.9-3.8.6-6.9-.3-9.7-2.5-7.3-8.9-20.6-13.3-25.8-13.9-16.1,12.8-46.2,17.4-37.5,4.3,8.2-64.7,175.2-68.4,189.7h-.1Z"/>
      <path class="st1" d="M524.8,348.2c-.5,2.1,4.9-1.1,5.5-1.4,7.6-4.6,15-10.4,19.9-17.9,7.4-11.1,1.1-20.9,2.6-32.9.4-3.4,1.2-6.9,2.4-10.2,1.9-5.5,5.2-10.3,8.1-15.2,2.4-3.9,4.8-7.7,7.2-11.5,4.9-7.6,9.8-15.2,14.8-22.7,4.1-5.5,3.9-11.8,1-17.9-3.2-7.6-6.7-15.4-11.7-22-8.4-10.4-2.1-25,5.7-33.7,2.7-2.8,8.1-8.3,12.2-6,1.2.8,1.6,2.3,1.4,3.6-1.2,7.9-4.1,15.4-6.5,22.9-2.9,8.5-10.4,29.6-13.4,38.4-9.1,25.6-18.7,50.9-29.2,76-5.9,14.7-15.1,35.5-19.9,50.4h0ZM524.5,348c11.6-33.6,24.7-68.7,37.7-101.7,5.9-14.8,14.4-35.7,19.7-50.5,3.9-11.6,8.7-23.4,10.6-35.5,0-1,0-1.9-.9-2.4-3.3-1.5-8.2,3.7-10.2,6-7.3,8.6-13,23.2-3.9,32.4,4.8,6.5,8.2,13.8,11.4,21.2,2.6,5.5,3.5,12,.7,17.6-.4,1-15.4,24.2-16.5,25.8-3.7,5.7-7.4,11.3-10.9,17.1-1.7,2.9-3.4,5.7-4.5,8.8-1.2,3-2.1,6.3-2.5,9.5-1.8,12,3.8,22-4.2,33.2-3.9,5.7-9.4,10-14.9,14-1.7,1.3-12.1,8.2-11.7,4.6h.1Z"/>
    </g>
    <path class="st6" d="M513,123.5c-32.6,19.3-41.3,37-42.6,50.3-1.7,18.5,10.6,32.3,3.1,42.1-8,10.5-25.4-1.1-37.5,8.7-15.4,12.6.7,41.9-7.7,87.3-3.2,17.4-8.9,31-12.8,39"/>
    <g>
      <path class="st9" d="M493.8,127.7c2-10.5-8.6.2-14.7,24.1-7.9,31,5.4,34,12,67,2.9,14.7,1,28.8-.7,34.2-10.5,34-18.8,32.6-31.9,62.9-10.6,24.5-7.3,54.1-6.2,48.9,3.1-14.8,7.9-11,17.7-78.5,4.6-31.2,16.6-58.8,15.3-85.6-2.4-51.5,5.2-56.2,8.4-73h.1Z"/>
      <path class="st1" d="M493.7,127.7c.5-2.8.3-5.9-3.1-1.9-1.7,2-2.9,4.3-4.1,6.7-4.4,9.4-7.1,19.7-8.4,30-.5,5.1-.3,10.3.9,15.3,1.2,5,3.3,9.7,5.4,14.6,4.2,9.7,7.5,20,9.1,30.5,1.3,9.3,1.1,18.8-.7,28-3.2,11.5-7.7,22.8-14.2,32.9-7.3,10.9-14.4,21.8-19.4,34-4.9,12-7.1,25.1-7.3,38.1,0,2.9.1,6.5.6,9,0,0-.3-.2-.6-.1-.2.1-.3.2-.3.2.9-4.4,2.6-8.8,4.3-12.9,7.8-22,10.7-46.3,14.1-69.3,3.1-20.8,9.7-41,12.9-61.7,1.2-7.7,1.6-15.5,1.2-23.3-.3-7.9-.2-15.8.2-23.7.3-5.1.8-10.7,1.6-15.8,1.3-10.5,5.7-20.3,7.9-30.5h-.1ZM494,127.7c-2.1,10.3-6.3,20.1-7.1,30.6-1.8,15.7-.4,31.4,0,47.2,0,5.3-.6,10.6-1.3,15.9-3.3,20.9-10.6,40.7-14.2,61.5-3.6,20.7-6.3,41.6-11.9,62-1.7,6.3-4.6,12.3-6,18.7l-.2.9c-.1.4,0,1.2-.8,1.6-.7.2-1-.3-1.2-.6-.9-3.1-.9-6.4-1-9.6-.3-22.7,5.6-41.1,17.3-60.3,2.7-4.5,5.8-8.9,8.5-13.3,5.6-8.8,9.4-18.5,12.5-28.4,4.4-14.9,2.7-31-1.6-45.7-2.8-10.2-8-19.4-10.4-29.8-3.2-15.1,2.7-32.7,9.4-46.1,1.8-3,3.5-6.8,6.6-8.6,2.2-.6,1.5,2.9,1.3,4.1h.1Z"/>
    </g>
    <path class="st6" d="M566.4,146.8c7.8,38.4-3.4,54.3-15.1,61.8-17.2,10.9-38.9,5.7-43.3,18.2-6.3,17.8,32.5,43,24.9,54-8.2,12.1-58.9-11.5-69.2,1.9-7.5,9.7,16,25.7,9.8,46.6-3,10-12,18.4-16.4,22.5-5.5,5.1-11,8.7-15.1,11.1"/>
    <path id="head" class="st7" d="M627.2,184.9c18-40.6,1.9-87-36-103.8-37.8-16.8-83.1,2.5-101,43.1-1.1,2.5-2.1,5-2.9,7.6,15.9-5.3,23,1.5,25.7,3.6,12.2,9.6,22,6.1,34,22.8,12.4,17.3,36.4,13.5,58.5,17.8,7.9,1.5,13.5,4,18.1,16.2.8,2.2,2.4-4.5,3.6-7.3h0Z"/>
  </g>
  <g id="Name">
    <path class="st1" d="M230.6,32.3c2.7-3.1,5.4-4.2,8.4-4.2,5.8,0,10,4.6,10,10.4v253c0,5.4-4.2,10.4-10,10.4s-10-5-10-10.4v-69.4h-85.9c-5.4,0-9.2-3.8-9.2-9.2s3.8-9.2,9.2-9.2h85.9V63.3L32.4,297.9c-1.5,1.9-4.6,3.8-7.3,3.8-5.4,0-9.6-4.6-9.6-9.6s.8-4.2,2.7-6.5L230.6,32.3Z"/>
    <path class="st1" d="M229.5,210.8c0-5.8,4.2-10,10-10h57.9c46.8,0,76.7,32.2,76.7,72.8s-29.9,72.5-76.7,72.5h-16.5c-5.4,0-9.2-4.2-9.2-9.2s3.8-9.6,9.2-9.6h15.7c35.3,0,56.7-23.8,56.7-53.7s-21.5-54.4-56.7-54.4h-47.2v242.3c0,5.4-4.2,10.4-10,10.4s-10-5-10-10.4v-250.7h.1Z"/>
    <g>
      <path class="st1" d="M262.6,82.9c0-3.5,2.7-6.4,6.4-6.4s6.4,2.9,6.4,6.4v101.4c0,3.7-2.9,6.5-6.4,6.5s-6.4-2.9-6.4-6.5v-101.4h0Z"/>
      <path class="st1" d="M287.4,88.4c0-4.5,3.5-8,8-8s8,3.5,8,8-3.7,8-8,8-8-3.7-8-8ZM289,113.3c0-3.5,2.7-6.4,6.4-6.4s6.4,2.9,6.4,6.4v71.1c0,3.7-2.9,6.5-6.4,6.5s-6.4-2.9-6.4-6.5v-71.1Z"/>
      <path class="st1" d="M317.4,165.7c2.1,0,4.6,1.3,5.4,3.8,1.4,4.5,5.6,10.2,14.2,10.2s12.6-5.6,12.6-11.7-6.4-11.7-14.9-14.5c-11-3.7-22.2-8-22.2-23.8s10.4-23.2,24.6-23.2,24.8,8.3,24.8,19.2-2.6,5.8-5.8,5.8-4.6-.8-5.6-4.5c-1.1-4.2-5.9-9.1-13.4-9.1s-12.3,5.6-12.3,11.8,7.7,11.3,17.1,14.4c10.1,3,20.4,8.6,20.4,23.6s-10.9,23.5-25.4,23.5-25.4-9.4-25.4-19.8,2.6-5.8,5.8-5.8h0Z"/>
      <path class="st1" d="M440.1,178.4c-7.5,8-17.9,12.8-29.9,12.8-23.5,0-41.4-18.7-41.4-42.3s17.9-42.3,41.4-42.3,22.4,5,29.9,12.8v-6.1c0-3.5,2.9-6.4,6.4-6.4s6.4,2.9,6.4,6.4v71.1c0,3.7-2.7,6.5-6.4,6.5s-6.4-2.9-6.4-6.5v-5.9h0ZM440.1,150.2v-2.6c-.6-16.6-13.3-29.2-29.1-29.2s-29.2,13.3-29.2,30.5,12.9,30.5,29.2,30.5,28.4-12.6,29.1-29.2h0Z"/>
    </g>
    <g>
      <path class="st1" d="M330.7,459.2c-7.5,8-17.9,12.8-29.9,12.8-23.5,0-41.4-18.7-41.4-42.3s17.9-42.3,41.4-42.3,22.4,5,29.9,12.8v-6.1c0-3.5,2.9-6.4,6.4-6.4s6.4,2.9,6.4,6.4v71.1c0,3.7-2.7,6.6-6.4,6.6s-6.4-2.9-6.4-6.6v-5.9h0ZM330.7,430.9v-2.6c-.6-16.6-13.3-29.2-29.1-29.2s-29.2,13.3-29.2,30.5,12.9,30.5,29.2,30.5,28.4-12.6,29.1-29.2Z"/>
      <path class="st1" d="M357.2,363.5c0-3.5,2.7-6.4,6.4-6.4s6.4,2.9,6.4,6.4v101.4c0,3.7-2.9,6.6-6.4,6.6s-6.4-2.9-6.4-6.6v-101.4Z"/>
      <path class="st1" d="M385.7,446.4c2.1,0,4.6,1.3,5.4,3.8,1.4,4.5,5.6,10.2,14.2,10.2s12.6-5.6,12.6-11.7-6.4-11.7-14.9-14.5c-11-3.7-22.2-8-22.2-23.8s10.4-23.2,24.6-23.2,24.8,8.3,24.8,19.2-2.6,5.8-5.8,5.8-4.6-.8-5.6-4.5c-1.1-4.2-5.9-9.1-13.4-9.1s-12.3,5.6-12.3,11.8,7.7,11.3,17.1,14.4c10.1,3,20.4,8.6,20.4,23.6s-10.9,23.5-25.4,23.5-25.4-9.4-25.4-19.8,2.6-5.8,5.8-5.8h0Z"/>
      <path class="st1" d="M437.1,429.5c0-23.6,18.2-42.3,42.2-42.3s42,18.7,42,42.3-18.1,42.3-42,42.3-42.2-18.7-42.2-42.3h0ZM508.4,429.5c0-16.9-12.6-30.5-29.1-30.5s-29.2,13.6-29.2,30.5,12.8,30.5,29.2,30.5,29.1-13.7,29.1-30.5h0Z"/>
      <path class="st1" d="M531.4,424.2c0-23.2,15.5-36.9,35-36.9s35.1,13.7,35.1,36.9v40.9c0,3.7-2.9,6.6-6.4,6.6s-6.4-2.9-6.4-6.6v-41.2c0-16.3-9.9-24.8-22.4-24.8s-22.2,8.5-22.2,24.8v41.2c0,3.7-2.9,6.6-6.4,6.6s-6.4-2.9-6.4-6.6v-40.9h.1Z"/>
    </g>
  </g>
</svg>