<?xml version="1.0" encoding="UTF-8"?>
<svg xmlns="http://www.w3.org/2000/svg" version="1.1" xmlns:xlink="http://www.w3.org/1999/xlink" viewBox="0 0 700 700">
  <!-- Generator: Adobe Illustrator 29.5.1, SVG Export Plug-In . SVG Version: 2.1.0 Build 141)  -->
  <defs>
    <style>
      .st0 {
        fill: url(#linear-gradient2);
      }

      .st1 {
        fill: none;
      }

      .st1, .st2 {
        stroke: #000;
        stroke-miterlimit: 10;
      }

      .st2 {
        fill: url(#linear-gradient8);
        stroke-width: 3px;
      }

      .st3 {
        fill: url(#linear-gradient1);
      }

      .st4 {
        fill: url(#linear-gradient7);
      }

      .st5 {
        fill: url(#linear-gradient4);
      }

      .st6 {
        fill: url(#linear-gradient5);
      }

      .st7 {
        fill: url(#linear-gradient3);
      }

      .st8 {
        fill: url(#linear-gradient6);
      }

      .st9 {
        fill: url(#linear-gradient);
      }
    </style>
    <linearGradient id="linear-gradient" x1="358.4" y1="856.5" x2="469.1" y2="680.4" gradientTransform="translate(-461.4 223.9) rotate(63) scale(1.2 -1.1) skewX(-2.3)" gradientUnits="userSpaceOnUse">
      <stop offset="0" stop-color="#e6e6e6" stop-opacity=".9"/>
      <stop offset="0" stop-color="#cacaca" stop-opacity=".9"/>
      <stop offset=".2" stop-color="#848484" stop-opacity=".9"/>
      <stop offset=".5" stop-color="#151515" stop-opacity=".9"/>
      <stop offset=".5" stop-color="#000" stop-opacity=".9"/>
      <stop offset=".6" stop-color="#181818" stop-opacity=".9"/>
      <stop offset=".7" stop-color="#575757" stop-opacity=".9"/>
      <stop offset=".9" stop-color="#bbb" stop-opacity=".9"/>
      <stop offset="1" stop-color="#e6e6e6" stop-opacity=".9"/>
    </linearGradient>
    <linearGradient id="linear-gradient1" x1="677" y1="276.7" x2="577.3" y2="525.1" gradientTransform="translate(1239.4 761.7) rotate(-179.6)" xlink:href="#linear-gradient"/>
    <linearGradient id="linear-gradient2" x1="713.3" y1="-28.2" x2="609.6" y2="224.4" gradientTransform="translate(-2.5 176.6) rotate(3.3) scale(.9 .9) skewX(1.9)" xlink:href="#linear-gradient"/>
    <linearGradient id="linear-gradient3" x1="587.2" y1="155.7" x2="430" y2="428" gradientUnits="userSpaceOnUse">
      <stop offset="0" stop-color="#e6e6e6" stop-opacity=".9"/>
      <stop offset="0" stop-color="#cacaca" stop-opacity=".9"/>
      <stop offset=".2" stop-color="#848484" stop-opacity=".9"/>
      <stop offset=".5" stop-color="#151515" stop-opacity=".9"/>
      <stop offset=".5" stop-color="#000" stop-opacity=".9"/>
      <stop offset=".6" stop-color="#181818" stop-opacity=".9"/>
      <stop offset=".7" stop-color="#575757" stop-opacity=".9"/>
      <stop offset=".9" stop-color="#bbb" stop-opacity=".9"/>
      <stop offset="1" stop-color="#e6e6e6" stop-opacity=".9"/>
    </linearGradient>
    <linearGradient id="linear-gradient4" x1="630.6" y1="200.2" x2="492" y2="440.3" gradientTransform="translate(-63.8 59.4) rotate(-7.1) scale(1 1) skewX(0)" gradientUnits="userSpaceOnUse">
      <stop offset="0" stop-color="#e6e6e6" stop-opacity=".9"/>
      <stop offset="0" stop-color="#cacaca" stop-opacity=".9"/>
      <stop offset=".2" stop-color="#848484" stop-opacity=".9"/>
      <stop offset=".5" stop-color="#151515" stop-opacity=".9"/>
      <stop offset=".5" stop-color="#000" stop-opacity=".9"/>
      <stop offset=".6" stop-color="#181818" stop-opacity=".9"/>
      <stop offset=".7" stop-color="#575757" stop-opacity=".9"/>
      <stop offset=".9" stop-color="#bbb" stop-opacity=".9"/>
      <stop offset="1" stop-color="#e6e6e6" stop-opacity=".9"/>
    </linearGradient>
    <linearGradient id="linear-gradient5" x1="629.3" y1="192" x2="502.3" y2="411.9" gradientTransform="translate(-1.2 -19.7) rotate(.3) scale(1 1.1) skewX(.6)" xlink:href="#linear-gradient4"/>
    <linearGradient id="linear-gradient6" x1="636.4" y1="226" x2="534.7" y2="402.1" gradientTransform="translate(77.7 -101.1) rotate(10.9)" gradientUnits="userSpaceOnUse">
      <stop offset="0" stop-color="#e6e6e6" stop-opacity=".9"/>
      <stop offset="0" stop-color="#cacaca" stop-opacity=".9"/>
      <stop offset=".2" stop-color="#848484" stop-opacity=".9"/>
      <stop offset=".5" stop-color="#151515" stop-opacity=".9"/>
      <stop offset=".5" stop-color="#000" stop-opacity=".9"/>
      <stop offset=".6" stop-color="#181818" stop-opacity=".9"/>
      <stop offset=".7" stop-color="#575757" stop-opacity=".9"/>
      <stop offset=".9" stop-color="#bbb" stop-opacity=".9"/>
      <stop offset="1" stop-color="#e6e6e6" stop-opacity=".9"/>
    </linearGradient>
    <linearGradient id="linear-gradient7" x1="597.5" y1="220.9" x2="469.9" y2="442.1" gradientTransform="translate(102.6 235.5) rotate(-29.2) scale(.9 .8) skewX(-28)" gradientUnits="userSpaceOnUse">
      <stop offset="0" stop-color="#b0bcbf" stop-opacity=".9"/>
      <stop offset="0" stop-color="#96a1a3" stop-opacity=".9"/>
      <stop offset=".3" stop-color="#565c5d" stop-opacity=".9"/>
      <stop offset=".5" stop-color="#000" stop-opacity=".9"/>
      <stop offset=".6" stop-color="#161718" stop-opacity=".9"/>
      <stop offset=".8" stop-color="#505557" stop-opacity=".9"/>
      <stop offset="1" stop-color="#acb8bb" stop-opacity=".9"/>
      <stop offset="1" stop-color="#b0bcbf" stop-opacity=".9"/>
    </linearGradient>
    <linearGradient id="linear-gradient8" x1="652.5" y1="149.3" x2="565.6" y2="236.2" gradientUnits="userSpaceOnUse">
      <stop offset="0" stop-color="gray"/>
      <stop offset="0" stop-color="#747474"/>
      <stop offset=".2" stop-color="#515151"/>
      <stop offset=".3" stop-color="#333"/>
      <stop offset=".4" stop-color="#1c1c1c"/>
      <stop offset=".6" stop-color="#0c0c0c"/>
      <stop offset=".8" stop-color="#030303"/>
      <stop offset="1" stop-color="#000"/>
    </linearGradient>
  </defs>
  <g id="Name">
    <path d="M244.6,86.8c2.9-3.3,5.7-4.5,9-4.5,6.2,0,10.7,4.9,10.7,11.1v271c0,5.7-4.5,11.1-10.7,11.1s-10.7-5.3-10.7-11.1v-74.3h-92c-5.7,0-9.9-4.1-9.9-9.9s4.1-9.9,9.9-9.9h92V120.1L32.4,371.3c-1.6,2.1-4.9,4.1-7.8,4.1-5.7,0-10.3-4.9-10.3-10.3s.8-4.5,2.9-7L244.6,86.8Z"/>
    <path d="M243.4,278c0-6.2,4.5-10.7,10.7-10.7h62c50.1,0,82.1,34.5,82.1,78s-32,77.6-82.1,77.6h-17.7c-5.7,0-9.9-4.5-9.9-9.9s4.1-10.3,9.9-10.3h16.8c37.8,0,60.8-25.5,60.8-57.5s-23-58.3-60.8-58.3h-50.5v259.5c0,5.7-4.5,11.1-10.7,11.1s-10.7-5.3-10.7-11.1v-268.5Z"/>
    <g>
      <path d="M278.9,141c0-3.8,2.9-6.8,6.8-6.8s6.8,3.1,6.8,6.8v108.6c0,3.9-3.1,7-6.8,7s-6.8-3.1-6.8-7v-108.6Z"/>
      <path d="M305.5,146.8c0-4.8,3.8-8.6,8.6-8.6s8.6,3.8,8.6,8.6-3.9,8.6-8.6,8.6-8.6-3.9-8.6-8.6ZM307.2,173.5c0-3.8,2.9-6.8,6.8-6.8s6.8,3.1,6.8,6.8v76.1c0,3.9-3.1,7-6.8,7s-6.8-3.1-6.8-7v-76.1Z"/>
      <path d="M337.6,229.6c2.2,0,5,1.4,5.8,4.1,1.5,4.8,6,10.9,15.2,10.9s13.5-6,13.5-12.5-6.8-12.5-15.9-15.6c-11.8-3.9-23.8-8.6-23.8-25.5s11.1-24.8,26.3-24.8,26.5,8.9,26.5,20.5-2.7,6.2-6.2,6.2-5-.9-6-4.8c-1.2-4.4-6.3-9.8-14.4-9.8s-13.2,6-13.2,12.7,8.2,12.1,18.3,15.4c10.8,3.3,21.9,9.2,21.9,25.3s-11.6,25.1-27.2,25.1-27.2-10.1-27.2-21.2,2.7-6.2,6.2-6.2Z"/>
      <path d="M469,243.3c-8,8.6-19.2,13.7-32,13.7-25.1,0-44.3-20-44.3-45.3s19.2-45.3,44.3-45.3,23.9,5.3,32,13.7v-6.5c0-3.8,3.1-6.8,6.8-6.8s6.8,3.1,6.8,6.8v76.1c0,3.9-2.9,7-6.8,7s-6.8-3.1-6.8-7v-6.3ZM469,213v-2.7c-.7-17.8-14.2-31.3-31.1-31.3s-31.3,14.2-31.3,32.7,13.9,32.7,31.3,32.7,30.5-13.5,31.1-31.3Z"/>
    </g>
    <g>
      <path d="M351.8,543.9c-8,8.6-19.2,13.7-32,13.7-25.1,0-44.3-20-44.3-45.3s19.2-45.3,44.3-45.3,23.9,5.3,32,13.7v-6.5c0-3.8,3.1-6.8,6.8-6.8s6.8,3.1,6.8,6.8v76.1c0,3.9-2.9,7-6.8,7s-6.8-3.1-6.8-7v-6.3ZM351.8,513.6v-2.7c-.7-17.8-14.2-31.3-31.1-31.3s-31.3,14.2-31.3,32.7,13.9,32.7,31.3,32.7,30.4-13.5,31.1-31.3Z"/>
      <path d="M380.2,441.6c0-3.8,2.9-6.8,6.8-6.8s6.8,3.1,6.8,6.8v108.6c0,3.9-3.1,7-6.8,7s-6.8-3.1-6.8-7v-108.6Z"/>
      <path d="M410.7,530.2c2.2,0,5,1.4,5.8,4.1,1.5,4.8,6,10.9,15.2,10.9s13.5-6,13.5-12.5-6.8-12.5-15.9-15.6c-11.8-3.9-23.8-8.6-23.8-25.5s11.1-24.8,26.3-24.8,26.5,8.9,26.5,20.5-2.7,6.2-6.2,6.2-5-.9-6-4.8c-1.2-4.4-6.3-9.8-14.4-9.8s-13.2,6-13.2,12.7,8.2,12.1,18.3,15.4c10.8,3.2,21.9,9.2,21.9,25.3s-11.6,25.1-27.2,25.1-27.2-10.1-27.2-21.2,2.7-6.2,6.2-6.2Z"/>
      <path d="M465.8,512.2c0-25.3,19.5-45.3,45.2-45.3s45,20,45,45.3-19.3,45.3-45,45.3-45.2-20-45.2-45.3ZM542.1,512.2c0-18.1-13.5-32.7-31.1-32.7s-31.3,14.5-31.3,32.7,13.7,32.7,31.3,32.7,31.1-14.7,31.1-32.7Z"/>
      <path d="M566.7,506.4c0-24.8,16.6-39.5,37.5-39.5s37.6,14.7,37.6,39.5v43.8c0,3.9-3.1,7-6.8,7s-6.8-3.1-6.8-7v-44.1c0-17.4-10.6-26.5-23.9-26.5s-23.8,9.1-23.8,26.5v44.1c0,3.9-3.1,7-6.8,7s-6.8-3.1-6.8-7v-43.8Z"/>
    </g>
  </g>
  <g id="Jellyfish">
    <g id="tentacles">
      <path class="st1" d="M587.3,160.7c-45.7,17.7-56.5,36.6-58.1,50.6-2.8,25.3,24.6,40.7,17.1,67.8-4.1,14.6-15.7,23.2-35.4,37.8-27.6,20.5-50.3,24.4-63.1,47-3.9,6.9-5.5,13.2-6.3,17.4"/>
      <g>
        <path class="st9" d="M432.6,349.1c-5.6,11.3,18.4-7.6,35.4-27,22.9-26.1,20.1-50.4,41.4-97.2,12-26.4,33.5-40.8,36.2-42.6,3.1-2,15.3-4.3,22.1-15.3.8-1.3,4.6-7.4,2.9-9.5-1.5-2-8.1-.5-10.6,3.9-2.4,4.2-.2,9.1.4,13.7,1.5,13.1-12.5,22.6-17.1,29.5-12.7,19.2-26.1,34.3-41.8,51.2-57,61.3-64.6,84.5-68.9,93.3Z"/>
        <path d="M432.7,349.2c-3.8,7.9,7.7-1.2,9.5-2.6,4-3.2,7.9-6.7,11.5-10.3,29-27.5,30.4-45,42.3-80.7,5.3-14.6,10.8-29.4,19.1-42.5,7.1-10.9,16.1-20.5,26.3-28.4,2.1-1.6,4.2-3.2,6.7-4.1,4.8-1.9,9.5-4,13.3-7.4,3.8-3.3,6.7-7.7,8.3-12.4.3-.9.6-2.2,0-2.8-.7-.5-2-.5-2.9-.3-2.3.5-4.5,1.9-5.7,3.7-3.2,5,.9,10.9.4,16.5-.5,11.9-11.2,19.1-17.5,27.9-21.9,33.8-52.4,60.6-77.6,91.7-13.2,15.8-25.6,32.6-33.8,51.6h0ZM432.5,349.1c13.6-30.9,35.3-57.4,57.3-82.6,17.1-19,35.4-37.9,49.9-59,1.3-1.9,3.1-4.7,4.6-6.4,6.4-7.3,15.4-14.5,15-25-.1-3.7-1.9-7.8-1.2-11.7.5-4.4,4.5-7.7,8.7-8.4,2.4-.5,5.5.2,5.2,3.3-.4,3.4-2.4,6.4-4.2,9.1-1.5,2.2-3.3,4.2-5.3,5.8-4.1,3.4-9,5.5-13.8,7.4-4.8,1.9-8.6,5.6-12.5,8.7-11.6,10.2-21,22.9-26.9,37.1-4.1,9.5-7.7,19.1-10.8,28.9-4.9,14.7-8.4,30-15.1,44.1-6.5,14.3-17.6,25.9-29,36.4-2.5,2.5-27.3,24.3-21.8,12.2h0Z"/>
      </g>
      <g>
        <path class="st3" d="M563.8,478.1c-5.9,9.2-1.9-18.1,5.2-39.8,9.6-29.3,28.2-37,53.3-73.5,14.2-20.6,15.9-44,16.1-46.9,1.8-28.4-4.8-24.2,4.6-41.7,8.5-15.9,6.3-10.2,25.7-41.6,1-1.7-4.7,26.1-31.1,68.3-18,28.9-25.9,52.2-34.4,81-21.2,71.5-34.9,87.2-39.5,94.3Z"/>
        <path d="M563.9,478.1c-.5.7-1,1.7-2,1.9-.7,0-.9-.8-1-1.3-.5-4.3.4-8.6.9-12.8.9-5.6,2.1-11.2,3.5-16.7,6.2-27.2,16.5-38.1,34.4-58.1,7.5-8.5,14.6-17.3,21.1-26.6,13-18.4,18.7-41.6,17.2-64.1-.4-5.6-1.4-11.6,1-17,4.4-10.4,10.7-20.2,16.8-29.7,4-6.3,7.9-12.7,11.7-19,0,0,.3-.5.3-.5v-.2c.2,0,0,0,.6-.5,1.5-.1,1.3,1.1,1.3.8,0,.9-.2,1.6-.3,2.4-4.9,19.4-13.8,37.6-23.5,55-5.5,9.7-12,19.5-17,29.5-10.6,20-17.8,41.6-24.3,63.2-6.7,21.7-14.3,43.4-23.8,64-4.7,10.3-10.2,20.4-16.9,29.6h0ZM563.6,478c6.6-9.3,11.9-19.3,16.3-29.8,13.6-31.4,20.7-64.9,32.2-97,3.9-10.7,8.5-21.2,13.9-31.3,5.2-10,11.7-19.7,17.4-29.4,9.9-17.4,19.3-35.6,24.4-55,0,0,0-.5,0-.5,0-.1,0-.3,0-.3,0-.3-.2.8,1.2.7.5-.3.3-.3.3-.2v.2c-4.2,6.4-8.4,12.9-12.6,19.2-6.3,9.4-12.5,18.9-17,29.3-2.4,5.3-1.3,11-.9,16.6,2.7,39.9-11.5,63.7-37.3,92.4-11.3,12.7-23.8,24.5-30.3,40.4-4.2,10.5-7.2,21.6-9.2,32.7-.6,3.2-3,18.7,1.4,12h0Z"/>
      </g>
      <g>
        <path class="st0" d="M650.3,194.7c4.2-7.8-7.4-14.5-11.8-6.8-.8,1.4-1.5,2.9-2,4.4-4.9,15.7,15,21.9,13.8,45.5-1.9,36.2-37.5,70.3-43.5,75.2-23.2,18.9-37,21.5-47.3,41.4-7.6,14.8-11.2,51.2-6.6,41.1,15-33.3,13.9-42.1,27.8-64.4,10.9-17.4,59.8-86.7,61-112.3.3-6.6,4.1-15.6,8.7-24.1Z"/>
        <path d="M650.1,194.6c3.7-6.4-5.2-13.5-10.4-8.1-2.4,2.9-3.7,6.9-3.6,10.6,0,5.2,3.2,9.6,6,13.8,6.5,9,10.5,18.3,9.1,29.7-2.9,28.3-23.1,54.2-43.7,72.6-6.1,4.8-12.5,9.3-19.1,13.6-9.7,6.3-19.7,12.9-25.8,23-5,7.6-7.1,16.6-8.8,25.4-.9,5.1-1.6,10.2-1.9,15.3,0,1.9-.3,4,.2,5.8,0,0,0,0,0,0,0,0,0,0,0,0,0,0-.1,0-.2-.1-.1,0-.2,0-.3,0-.1,0-.2,0-.3,0,2.8-6.3,6.2-14.4,8.8-21.5,5.4-14.7,10-29.9,18.5-43.1,16.7-26.2,34.7-51.9,49.6-79.1,4.9-9.1,9.7-18.4,12.3-28.4,0,0,.4-1.9.4-1.9,0-.3.1-.6.2-.9v-1c.7-9.2,5-17.6,9.2-25.6h0ZM650.4,194.8c-4.1,8-8.3,16.4-8.6,25.5,0,0,0,1,0,1-.1.6-.4,2.3-.5,2.9-2.3,10.2-6.8,19.7-11.4,29.1-13.9,28-31.8,53.7-48.7,79.9-2.7,4.4-5.2,8.9-7.4,13.5-6.4,14.1-10.8,29.2-17.3,43.4,0,0-1.6,3.6-1.6,3.6l-.8,1.8c-.4.8-.7,1.8-1.5,2.5-.1.1-.2.2-.5.3-.1,0-.3,0-.5.1-.5,0-1-.3-1.2-.7-.3-.3-.3-.8-.4-1.1-.4-2.1-.1-4.1,0-6.1.4-5.2,1.3-10.4,2.4-15.5,2.1-10.2,5.2-20.5,11.7-28.9,6.2-8.5,15.3-14.2,23.9-20,8.5-5.9,17.1-11.8,24.2-19.3,16.6-17.6,31.5-38.5,36.2-62.6,2.4-12.8-.1-21.8-7.3-32.5-2.7-4.4-5.8-9.2-5.7-14.6.2-3.9,1.5-7.9,4.1-11,5.5-5.5,15,1.7,11,8.6h0Z"/>
      </g>
      <path class="st1" d="M464.8,403.1c14.8-10.3,5.9-24.7-6-39.4-13.4-16.5,33.8,1.3,33.3-17.4-.5-20.6-1.4-32.3,24.1-43,26-10.9-.6-16.5.7-36.9,1.1-18,3.1-27.7,9.4-33.2,10.4-9.1,28.6,8.6,31.5-5.4,2.6-12.5,2.2-17.7,10.6-20.7s13.5-8.1,15.4-11.4"/>
      <path class="st1" d="M656.1,217.3c-8.1,4.3-38.9,14.8-49.1,24.5-4.6,4.4-20.9,22.3-15.5,42.7,4.9,18.5,22.9,20.2,26.1,38.6,2.8,16.1-8.3,29.8-12.3,34.1-16.4,17.8-37,14.9-44.5,28.7-3.5,6.4-4.7,17.2,9.2,36.2"/>
      <path class="st1" d="M647.4,209.1c6.3,23.4,17.8,89.4-9.4,102.4-3.7,1.8-25.3,4.7-35.1,22.9-7.4,13.8-13.2,26.8-1.9,66.7,6.4,22.5-1.3,37-8.3,44.8"/>
      <g>
        <path class="st7" d="M460.2,397.6c2.5-10.2,5.5-20.1,9.1-29.6,11.8-30.8,23.7-55.1,36.1-73.9,29.8-45.1,50.6-103.8,63-144.6,1.6-5.2,5.4-3,4.4,2.5-13.4,70.6-23.7,100.2-34.7,114.6-16.8,22-31.3,1.5-53,37.8-3.6,6-19.8,38.2-29,73.9-7,27.2-12,66.9-8.5,58.2,6.3-15.5,10.3-29.6,12.6-38.9Z"/>
        <path d="M460.1,397.5c3.1-13.3,7.5-26.2,12.5-38.8,7.4-19,15.5-37.9,25.8-55.6,2.9-5.1,7.6-12.3,10.7-17.4,7-11.6,13.5-23.5,19.4-35.7,5.9-12.2,11.2-24.7,16.3-37.2,7.6-18.7,14.4-38.2,20.5-57.5,0,0,1.5-4.9,1.5-4.9l.4-1.2c.1-.4.3-.9.5-1.3.5-1,1.2-2.1,2.3-2.5,1.1-.4,2.4,0,3.1.9,1.5,1.9,1.3,4.4.8,6.6-5.5,27.5-11.4,55-20.1,81.7-2.7,8.1-5.7,16.1-9.8,23.6-2.4,4.5-5.2,8.9-8.8,12.6-4.7,5.1-11.5,7.8-18.2,9.1-6.5,1.4-12.9,3.8-17.9,8.4-10.1,9-15.9,21.7-21.4,33.9-11.1,24.7-19.9,50.5-25.2,77.1-1.4,6.6-2.6,13.3-3.6,20-.5,3.4-1,6.7-1.4,10.1-.2,2.7-.7,5.4-.4,8,0,.1,0,0-.2,0,5.5-12.5,9.9-26.3,13.2-39.7h0ZM460.3,397.6c-3.2,13.2-7.3,26.2-12.3,38.9-.3.5-.4,1.3-1.1,1.6-.4,0-.7-.3-.7-.4-.1-.3-.1-.5-.2-.7-.3-6,.7-11.9,1.4-17.9.9-6.8,1.9-13.5,3.1-20.2,2.3-13.4,5.5-26.7,9.8-39.7,5.3-16.2,11.8-32,19.5-47.3,4.6-9.1,10.2-18.2,18.1-24.9,4-3.4,8.7-5.8,13.8-7.1,4.9-1.3,10-2,14.6-4.1,21.7-9.5,31.5-59,36.7-80.9,2.9-13.3,5.5-26.6,7.9-40,.3-2.4,1.2-4.6.3-6.7-.1-.3-.3-.4-.4-.5,0,0,0,0-.1,0-.2,0-.7.6-.9,1.2-.2.5-.6,1.7-.7,2.3-13.2,44-29.4,87.4-52.4,127.3-4.9,8.5-11.2,17.5-16.3,25.9-10.5,17.4-19.3,35.8-27.1,54.6-5.4,12.5-9.8,25.4-12.9,38.6h0Z"/>
      </g>
      <g>
        <path class="st5" d="M523,396.4c18.2-35.7,18.4-78.7,62.6-141.9,0,0,31.9-70.4,31.9-70.4h0c0,24.4-7.3,40.4-13.7,50.4-15,23.1-32.1,24.2-47,50.6-7.3,13-10.6,26-14.1,39.4-4.4,17.1-6.7,14-12.1,28.9-1.4,3.7-3.2,13.2-9.5,21.9-2.5,3.4-3,10.3-5.3,15.9-17.2,41.5-36.6,91.1,7.3,5.2Z"/>
        <path d="M522.9,396.3c12.9-26.3,17.4-55.6,28.6-82.5,6.2-15.8,14.2-31.2,23.2-45.6,2.7-4.5,6.6-10.2,9.5-14.5,7.3-16,27.2-59.5,34.7-75.8.4,20.7-3,41-15.2,58.2-2,2.9-4.4,6-6.8,8.6-9.8,10.8-22.9,17.8-31.9,29.3-9.1,11.2-14.7,24.8-18.4,38.7-2,7-3.2,14.1-5.6,21-1.1,3.5-3,6.7-4.8,9.9-1.7,3.1-3.1,6.4-4.3,9.8-1.2,3.3-2,7-3.3,10.3-1.3,3.5-2.8,6.9-4.8,10-.9,1.5-2,2.8-2.7,4.4-1.8,5-2.6,10.7-4.9,15.5-4.8,11.6-12,28.5-16.4,40.1-1.1,3.1-2.4,6.2-2.9,9.5,0,0,0,.1,0,.1,0,0,0,0,0,0,0-.1-.4-.2-.4-.2,2.3-2.3,4-5.6,5.8-8.5,7.4-12.4,14-25.3,20.6-38.2h0ZM523.1,396.4c-6.6,12.9-13.1,25.8-20,38.5-1.7,3-3.3,6.1-5.5,8.7-.2.2-.3.4-.9.6-.2,0-.7,0-.9-.3-.3-.5-.2-1.1-.2-1.6.5-3.2,1.6-6.2,2.6-9.3,4.7-13.7,10-27.2,15.5-40.6,1.5-3.3,2.3-6.6,3.2-10.1.5-1.8.9-3.6,1.6-5.4.7-1.7,1.9-3.2,2.9-4.8,1.9-3,3.4-6.2,4.7-9.5,2.4-6.8,4.3-14,8.1-20.3,1.8-3.1,3.7-6.1,4.9-9.5,4.7-13.6,7.2-28.1,13.6-41.2,3.1-6.6,6.9-12.8,11.5-18.5,8.9-11.5,22.1-18.7,31.6-29.7,2.4-2.6,4.6-5.6,6.5-8.5,10-14.9,14-33.2,13.8-51,0,0,2.6.6,2.6.6-5.8,12.9-26,58.2-31.5,70-.3.9-1.4,2.2-1.9,3.1,0,0-4,6-4,6-10.6,16-20,33.2-27.5,50.9-2.8,6.4-5.6,13.7-8,20.3-7.5,20.5-12.7,41.9-22.6,61.5h0Z"/>
      </g>
      <g>
        <path class="st6" d="M604.4,174.4c-11.1,8.9-30.9,27-40.4,51.7-1,2.7-17.4,47.4,9.2,71.4,5.9,5.3,12.7,8.5,14.6,17.4,3.2,14.9-10.9,30.8-12.4,32.5-17,18.8-35.1,15.6-43.5,29.1-7.1,11.4,3.5,17.3,6.2,45.8.9,9.8-.8,29.2,0,23.7,9.4-60.3,5.2-77.6,21-85.9,4-2.1,27.6-53.3,15.4-61.5-17.5-11.8,33.8-129.5,29.8-124.2Z"/>
        <path d="M604.5,174.5c-19.7,16-37,36.8-42.5,62.1-3.3,15.2-4.3,31.9,2.4,46.4,1.9,4.2,4.6,8.1,7.8,11.4,3.4,3.5,7.3,5.9,10.9,9.4,5.3,4.8,7.5,11.8,6.5,18.8-1.9,13.6-11.8,26.5-22.7,34.3-4.7,3.3-9.9,5.8-15.1,8-5.7,2.5-11.8,4.6-16.2,9.1-4.6,4.6-5.9,10.1-3.8,16.5,1.4,4.5,3,9.2,4.2,13.8,1.9,7.9,3.2,15.9,3.2,24,0,5.9-.4,12.1-.6,18.1,0,0,0,.3,0,.3,0,0,0,.2,0,.2-.3-.8-1.9.3-1.2,0,2.2-12.7,3.8-25.6,5.4-38.5.8-6.4,1.4-12.8,2.2-19.1.9-6.4,1.7-12.9,4.2-18.9,1.8-4.5,5.2-8.4,9.6-10.6,1.2-.9,1.9-2.5,2.7-3.8,3.1-5.5,5.6-11.4,7.9-17.4,3.3-8.9,6.4-18,7.3-27.5.2-4.2.4-9-3.2-11.5-4.3-3.9-3.8-10.2-3.7-15.3,1-13,4.7-25.4,8.5-37.8,7.3-23.6,18.2-49.6,26.2-71.8h0ZM604.3,174.3s0,0,.1-.1c0,0,.2-.2.4,0,0,.7-.3,1.4-.5,2.1-.4,1.3-2,5.4-2.5,6.8-7.9,21-15.5,42.2-21.7,63.8-3.4,12.3-6.8,24.7-7.7,37.4,0,4.4-.5,9.9,2.7,13.1,4.5,2.9,4.5,9.3,4.2,13.8-1,9.8-4.3,19-7.9,28.1-2.5,6-5.2,11.8-8.4,17.4-1,1.5-1.8,3.1-3.3,4.2-7.6,3.6-10.5,11.1-12,18.9-3.8,22.2-5.2,44.8-8.9,67.1,0,0,0,.2,0,.2.7-.3-1,1-1.3,0-.1-1.1,0-3.3,0-4.4.2-4.7.3-9.7.2-14.4-.1-6.4-1.1-12.7-2.5-18.9-1.4-6.2-3.6-12.1-5.6-18.4-.6-2.4-1.4-5-1.2-7.5.1-4.4,2.5-8.4,5.4-11.5,7-7.2,17.2-9.1,25.6-13.9,5.5-3,10.5-6.9,14.7-11.5,7.4-8.6,14.7-20.7,12-32.3-1.6-6.6-7.4-10.3-12.4-14.5-2.5-2.1-4.9-4.6-6.9-7.2-12.2-16-11.5-38-6.7-56.6,6.4-25.3,24.4-45.8,44.3-61.8h0Z"/>
      </g>
      <g>
        <path class="st8" d="M556.1,419.4c-1.2,4.8,22-9.9,28.4-21.2,1.3-2.2,3.2-5.2,3.8-10.4,1.2-10.2-4.3-19,2.6-36.5,2.1-5.4,9.4-16.7,24.1-39.3,9-13.9,10-14.8,10.8-18.3,1-4.1.7-7.5-.4-10.5-2.7-7.9-9.6-22.2-14.4-27.8-15-17.4,13.8-49.8,18.7-40.4,4.6,8.8-69.7,188.8-73.7,204.3Z"/>
        <path d="M556.2,419.4c-.5,2.3,5.3-1.2,5.9-1.5,8.2-5,16.1-11.2,21.4-19.2,8-12.1,1.2-22.4,2.9-35.4.4-3.7,1.3-7.4,2.6-10.9,2-5.9,5.6-11.1,8.7-16.4,2.6-4.2,5.2-8.3,7.8-12.4,5.3-8.2,10.6-16.4,15.9-24.5,4.5-6.1,4.2-12.8,1.1-19.4-3.5-8.2-7.2-16.6-12.7-23.7-9-11.1-2.2-26.9,6.1-36.2,2.9-3.1,8.6-8.9,13.1-6.5,1.3.8,1.7,2.4,1.4,3.8-1.3,8.5-4.4,16.6-7,24.7-3.1,9.1-11.2,31.9-14.5,41.4-9.8,27.5-20.2,54.9-31.4,81.8-6.3,15.8-16.3,38.3-21.3,54.4h0ZM555.9,419.3c12.5-36.2,26.8-74,40.7-109.6,6.3-16,15.4-38.5,21.2-54.5,3.3-9.2,6.5-18.4,9.2-27.7.7-2.3,1.3-4.7,1.8-7,.3-1.7.8-3.5.4-5.1-2.3-4.6-10.1,3.1-12,5.4-7.9,9.4-14.1,25-4.2,35,5.1,7,8.8,14.9,12.2,22.8.9,2.4,2,4.7,2.4,7.2.6,4,.1,8-1.6,11.6-.4,1.1-16.6,26-17.8,27.8-4,6.1-8,12.2-11.7,18.5-1.8,3.1-3.7,6.1-4.9,9.5-1.3,3.3-2.2,6.8-2.7,10.3-2,13,4.1,23.6-4.4,35.7-4.2,6.1-10.1,10.8-16,15-1.9,1.4-13,8.9-12.5,5h0Z"/>
      </g>
      <path class="st1" d="M543.5,177.4c-35.2,20.8-44.5,39.8-45.9,54.2-1.8,19.9,11.4,34.8,3.3,45.4-8.7,11.4-27.4-1.2-40.4,9.4-16.6,13.6.8,45.1-8.3,94.1-3.5,18.8-9.6,33.4-13.8,42.1"/>
      <g>
        <path class="st4" d="M522.8,181.9c2.1-11.3-9.2.2-15.8,26-8.5,33.4,5.8,36.6,13,72.2,3.2,15.8,1.1,31-.7,36.8-11.3,36.6-20.3,35.1-34.4,67.7-11.4,26.4-7.9,58.3-6.7,52.7,3.3-15.9,8.5-11.9,19.1-84.6,4.9-33.6,17.9-63.3,16.5-92.2-2.6-55.5,5.6-60.5,9-78.7Z"/>
        <path d="M522.7,181.8c.6-3,.3-6.4-3.3-2-1.8,2.2-3.1,4.7-4.4,7.2-2.5,5.1-4.3,10.4-5.8,15.9-5.3,19.9-5.2,30,3.4,48.7,8.5,19.6,13.5,41.7,9,63-1.8,7-4.4,13.6-7.2,20.3-4.4,10.5-11.3,19.9-17.4,29.4-5.8,9.6-11,19.6-14.4,30.3-3.9,13.6-6.3,29.1-4.3,42.9,0,0-.3-.2-.6-.1-.2.1-.2.2-.3.2,1-4.7,2.8-9.4,4.6-13.9,4-10.6,6.3-21.7,8.5-32.8,2.6-12.9,4.8-28.7,6.7-41.9,3.4-22.4,10.5-44.1,13.9-66.4,1.3-8.4,1.7-16.7,1.3-25.1-.3-8.5-.3-17,.2-25.6.3-5.5.8-11.6,1.7-17,1.4-11.3,6.1-21.8,8.4-32.9h0ZM523,181.9c-1,5.6-2.9,11-4.4,16.4-1.6,5.4-2.6,11-3.2,16.6-1.9,16.9-.5,33.8,0,50.8,0,5.7-.6,11.5-1.4,17.1-3.5,22.5-11.4,43.9-15.2,66.3-3.8,22.3-6.8,44.9-12.8,66.7-1.9,7.2-5.2,13.9-6.7,21.2,0,0-.1.5-.1.5,0,.2,0,.4-.3.7,0,0-.1.2-.5.4-.7.2-1-.3-1.2-.7-1-3.3-.9-6.9-1.1-10.3-.3-24.6,6-44.1,18.7-65,6-9.6,12.6-18.6,16.9-29.1,2.6-6.4,5.1-13,6.8-19.8,3.1-15.1,1.5-30.7-2.8-45.4-3-11-8.6-20.9-11.2-32.1-2.5-11.4,0-23.1,3.5-33.9,1.8-5.4,3.9-10.7,6.6-15.7,1.7-3.1,3.5-6.3,6.2-8.7,3.1-2.2,2.9,1.8,2.4,3.9h0Z"/>
      </g>
      <path class="st1" d="M601,202.5c8.4,41.4-3.7,58.5-16.3,66.5-18.5,11.8-41.9,6.1-46.7,19.6-6.8,19.2,35,46.3,26.9,58.2-8.9,13-63.4-12.4-74.6,2.1-8,10.4,17.3,27.7,10.6,50.2-3.2,10.8-12.9,19.8-17.7,24.3-5.9,5.5-11.8,9.4-16.3,12"/>
    </g>
    <path id="head" class="st2" d="M666.6,243.6c19.4-43.7,2-93.8-38.8-111.8-40.8-18.1-89.5,2.7-108.9,46.4-1.2,2.7-2.3,5.4-3.2,8.2,17.2-5.8,24.8,1.6,27.7,3.9,13.1,10.3,23.7,6.6,36.6,24.6,13.4,18.6,39.2,14.5,63.1,19.2,8.5,1.7,14.5,4.3,19.5,17.4.9,2.4,2.6-4.8,3.9-7.8Z"/>
  </g>
</svg>